<?xml version="1.0" encoding="utf-8"?>
<!-- Generator: Adobe Illustrator 16.0.0, SVG Export Plug-In . SVG Version: 6.00 Build 0)  -->
<!DOCTYPE svg PUBLIC "-//W3C//DTD SVG 1.1//EN" "http://www.w3.org/Graphics/SVG/1.1/DTD/svg11.dtd">
<svg xmlns="http://www.w3.org/2000/svg" xmlns:xlink="http://www.w3.org/1999/xlink" version="1.1" id="Layer_1" x="0px" y="0px" width="100px" height="100px" viewBox="0 0 100 100" enable-background="new 0 0 100 100" xml:space="preserve">

<g>
	<g>
		<radialGradient id="SVGID_13_" cx="49.9556" cy="34.4131" r="97.9709" gradientUnits="userSpaceOnUse">
			<stop offset="0" style="stop-color:#00ADEE"/>
			<stop offset="0.0016" style="stop-color:#01ADEE"/>
			<stop offset="0.0526" style="stop-color:#15ABE6"/>
			<stop offset="0.1029" style="stop-color:#22A9E2"/>
			<stop offset="0.1515" style="stop-color:#26A9E0"/>
			<stop offset="0.3273" style="stop-color:#1B75BB"/>
			<stop offset="0.5212" style="stop-color:#2B388F"/>
			<stop offset="0.7576" style="stop-color:#1C1651"/>
			<stop offset="1" style="stop-color:#120742"/>
		</radialGradient>
		<path fill="url(#SVGID_13_)" d="M18.634,71.353c-0.138,0-0.278-0.026-0.411-0.089C6.56,65.802,4.708,54.266,7.923,45.85    c1.748-4.579,4.945-8.319,9.002-10.525c4.346-2.373,9.422-2.871,14.727-1.45c2.73-4.891,8.613-8.169,15.931-8.837    c9.353-0.849,18.323,2.627,22.854,8.861c0.312,0.431,0.215,1.037-0.216,1.351c-0.432,0.315-1.037,0.219-1.352-0.212    c-4.139-5.694-12.422-8.862-21.113-8.074c-6.988,0.635-12.496,3.803-14.738,8.472c-0.207,0.429-0.695,0.647-1.15,0.509    C20.66,32.574,12.673,38.837,9.73,46.54c-2.906,7.606-1.231,18.034,9.314,22.973c0.486,0.225,0.692,0.797,0.465,1.285    C19.347,71.149,19,71.353,18.634,71.353z"/>
	</g>
	<g>
		<radialGradient id="SVGID_14_" cx="49.958" cy="34.4131" r="97.974" gradientUnits="userSpaceOnUse">
			<stop offset="0" style="stop-color:#00ADEE"/>
			<stop offset="0.0016" style="stop-color:#01ADEE"/>
			<stop offset="0.0526" style="stop-color:#15ABE6"/>
			<stop offset="0.1029" style="stop-color:#22A9E2"/>
			<stop offset="0.1515" style="stop-color:#26A9E0"/>
			<stop offset="0.3273" style="stop-color:#1B75BB"/>
			<stop offset="0.5212" style="stop-color:#2B388F"/>
			<stop offset="0.7576" style="stop-color:#1C1651"/>
			<stop offset="1" style="stop-color:#120742"/>
		</radialGradient>
		<path fill="url(#SVGID_14_)" d="M72.714,73.139c-1.271,0-2.56-0.108-3.851-0.33c-0.53-0.089-0.885-0.587-0.791-1.114    c0.087-0.527,0.584-0.88,1.117-0.794c8.406,1.436,16.614-2.364,20.426-9.449c3.588-6.677,2.271-14.354-3.518-20.534    c-0.369-0.389-0.348-1.001,0.042-1.366c0.39-0.366,1.004-0.347,1.366,0.042c6.389,6.814,7.815,15.332,3.813,22.776    C87.704,69.094,80.523,73.139,72.714,73.139z"/>
	</g>
	<g>
		<g>
			<radialGradient id="SVGID_15_" cx="49.9556" cy="34.4141" r="97.9751" gradientUnits="userSpaceOnUse">
				<stop offset="0" style="stop-color:#00ADEE"/>
				<stop offset="0.0016" style="stop-color:#01ADEE"/>
				<stop offset="0.0526" style="stop-color:#15ABE6"/>
				<stop offset="0.1029" style="stop-color:#22A9E2"/>
				<stop offset="0.1515" style="stop-color:#26A9E0"/>
				<stop offset="0.3273" style="stop-color:#1B75BB"/>
				<stop offset="0.5212" style="stop-color:#2B388F"/>
				<stop offset="0.7576" style="stop-color:#1C1651"/>
				<stop offset="1" style="stop-color:#120742"/>
			</radialGradient>
			<path fill="url(#SVGID_15_)" d="M60.082,77.147H35.866v-7.743h-9.296c-6.665,0-11.459-5.047-11.664-5.258     c-8.343-9.522-2.379-18.902-1.896-19.621c3.863-6.365,9.179-7.702,12.961-7.702c2.798,0,5.118,0.71,6.263,1.139     c6.665-7.485,13.788-8.31,16.59-8.31c0.444,0,0.764,0.021,0.935,0.039c0.594-0.066,1.199-0.096,1.799-0.096     c8.444,0,14.96,6.113,16.704,7.926c1.576-0.381,3.141-0.573,4.646-0.573c5.615,0,8.881,2.644,9.379,3.078     c11.226,7.926,5.065,20.597,4.998,20.725c-3.876,7.674-12.037,8.496-15.366,8.496c-0.749,0-1.266-0.034-1.444-0.057h-5.574v2.725     h-4.816V77.147z M37.999,75.009h19.947v-5.229h4.815v-2.721l7.885,0.003c0.003,0.006,0.486,0.054,1.271,0.054     c2.937,0,10.117-0.713,13.461-7.321c0.222-0.446,5.406-11.198-4.37-18.055l-0.113-0.09c-0.023-0.024-2.882-2.566-7.988-2.566     c-1.517,0-3.103,0.222-4.712,0.666l-0.646,0.174l-0.44-0.504c-0.069-0.078-6.83-7.689-15.551-7.689     c-0.558,0-1.121,0.03-1.675,0.096l-0.126,0.012l-0.128-0.012l0,0c0,0-0.292-0.036-0.804-0.036c-2.577,0-9.242,0.791-15.472,8.14     l-0.531,0.626l-0.74-0.35c-0.027-0.013-2.697-1.247-6.11-1.247c-4.708,0-8.458,2.253-11.149,6.695l-0.042,0.066     c-0.24,0.338-5.772,8.439,1.696,16.981c0.233,0.242,4.507,4.566,10.093,4.566h11.429V75.009z"/>
		</g>
		<radialGradient id="SVGID_16_" cx="49.9551" cy="34.4165" r="97.9643" gradientUnits="userSpaceOnUse">
			<stop offset="0" style="stop-color:#00ADEE"/>
			<stop offset="0.0016" style="stop-color:#01ADEE"/>
			<stop offset="0.0526" style="stop-color:#15ABE6"/>
			<stop offset="0.1029" style="stop-color:#22A9E2"/>
			<stop offset="0.1515" style="stop-color:#26A9E0"/>
			<stop offset="0.3273" style="stop-color:#1B75BB"/>
			<stop offset="0.5212" style="stop-color:#2B388F"/>
			<stop offset="0.7576" style="stop-color:#1C1651"/>
			<stop offset="1" style="stop-color:#120742"/>
		</radialGradient>
		<path fill="url(#SVGID_16_)" d="M35.677,64.253V46.776h4.917v-4.917h15.284c0,0,9.416-0.209,9.416,9.416v12.979h-2.406V51.274    c0,0-1.571-7.114-7.328-7.114H43.213v2.616h7.954c0,0,9.209,0,9.209,9.105v13.711l0.021,0.521h-2.478V55.146h-6.65v-5.443H38.083    v14.559L35.677,64.253z"/>
		<radialGradient id="SVGID_17_" cx="49.9565" cy="34.4673" r="97.7049" gradientUnits="userSpaceOnUse">
			<stop offset="0" style="stop-color:#00ADEE"/>
			<stop offset="0.0016" style="stop-color:#01ADEE"/>
			<stop offset="0.0526" style="stop-color:#15ABE6"/>
			<stop offset="0.1029" style="stop-color:#22A9E2"/>
			<stop offset="0.1515" style="stop-color:#26A9E0"/>
			<stop offset="0.3273" style="stop-color:#1B75BB"/>
			<stop offset="0.5212" style="stop-color:#2B388F"/>
			<stop offset="0.7576" style="stop-color:#1C1651"/>
			<stop offset="1" style="stop-color:#120742"/>
		</radialGradient>
		<rect x="39.803" y="53.372" fill="url(#SVGID_17_)" width="10.441" height="1.707"/>
		<radialGradient id="SVGID_18_" cx="49.9541" cy="34.4102" r="97.9934" gradientUnits="userSpaceOnUse">
			<stop offset="0" style="stop-color:#00ADEE"/>
			<stop offset="0.0016" style="stop-color:#01ADEE"/>
			<stop offset="0.0526" style="stop-color:#15ABE6"/>
			<stop offset="0.1029" style="stop-color:#22A9E2"/>
			<stop offset="0.1515" style="stop-color:#26A9E0"/>
			<stop offset="0.3273" style="stop-color:#1B75BB"/>
			<stop offset="0.5212" style="stop-color:#2B388F"/>
			<stop offset="0.7576" style="stop-color:#1C1651"/>
			<stop offset="1" style="stop-color:#120742"/>
		</radialGradient>
		<rect x="39.803" y="56.824" fill="url(#SVGID_18_)" width="16.477" height="1.712"/>
		<radialGradient id="SVGID_19_" cx="49.9541" cy="34.3643" r="98.1415" gradientUnits="userSpaceOnUse">
			<stop offset="0" style="stop-color:#00ADEE"/>
			<stop offset="0.0016" style="stop-color:#01ADEE"/>
			<stop offset="0.0526" style="stop-color:#15ABE6"/>
			<stop offset="0.1029" style="stop-color:#22A9E2"/>
			<stop offset="0.1515" style="stop-color:#26A9E0"/>
			<stop offset="0.3273" style="stop-color:#1B75BB"/>
			<stop offset="0.5212" style="stop-color:#2B388F"/>
			<stop offset="0.7576" style="stop-color:#1C1651"/>
			<stop offset="1" style="stop-color:#120742"/>
		</radialGradient>
		<rect x="39.803" y="60.433" fill="url(#SVGID_19_)" width="16.477" height="1.715"/>
		<radialGradient id="SVGID_20_" cx="49.9541" cy="34.4067" r="97.9941" gradientUnits="userSpaceOnUse">
			<stop offset="0" style="stop-color:#00ADEE"/>
			<stop offset="0.0016" style="stop-color:#01ADEE"/>
			<stop offset="0.0526" style="stop-color:#15ABE6"/>
			<stop offset="0.1029" style="stop-color:#22A9E2"/>
			<stop offset="0.1515" style="stop-color:#26A9E0"/>
			<stop offset="0.3273" style="stop-color:#1B75BB"/>
			<stop offset="0.5212" style="stop-color:#2B388F"/>
			<stop offset="0.7576" style="stop-color:#1C1651"/>
			<stop offset="1" style="stop-color:#120742"/>
		</radialGradient>
		<rect x="39.803" y="64.047" fill="url(#SVGID_20_)" width="16.477" height="1.712"/>
		<radialGradient id="SVGID_21_" cx="49.9541" cy="34.4888" r="97.7642" gradientUnits="userSpaceOnUse">
			<stop offset="0" style="stop-color:#00ADEE"/>
			<stop offset="0.0016" style="stop-color:#01ADEE"/>
			<stop offset="0.0526" style="stop-color:#15ABE6"/>
			<stop offset="0.1029" style="stop-color:#22A9E2"/>
			<stop offset="0.1515" style="stop-color:#26A9E0"/>
			<stop offset="0.3273" style="stop-color:#1B75BB"/>
			<stop offset="0.5212" style="stop-color:#2B388F"/>
			<stop offset="0.7576" style="stop-color:#1C1651"/>
			<stop offset="1" style="stop-color:#120742"/>
		</radialGradient>
		<rect x="39.803" y="67.661" fill="url(#SVGID_21_)" width="16.477" height="1.708"/>
		<radialGradient id="SVGID_22_" cx="49.9541" cy="34.4277" r="97.9386" gradientUnits="userSpaceOnUse">
			<stop offset="0" style="stop-color:#00ADEE"/>
			<stop offset="0.0016" style="stop-color:#01ADEE"/>
			<stop offset="0.0526" style="stop-color:#15ABE6"/>
			<stop offset="0.1029" style="stop-color:#22A9E2"/>
			<stop offset="0.1515" style="stop-color:#26A9E0"/>
			<stop offset="0.3273" style="stop-color:#1B75BB"/>
			<stop offset="0.5212" style="stop-color:#2B388F"/>
			<stop offset="0.7576" style="stop-color:#1C1651"/>
			<stop offset="1" style="stop-color:#120742"/>
		</radialGradient>
		<rect x="39.803" y="71.272" fill="url(#SVGID_22_)" width="16.477" height="1.711"/>
	</g>
</g>
</svg>
