<?xml version="1.0" encoding="utf-8"?>
<!-- Generator: Adobe Illustrator 16.0.0, SVG Export Plug-In . SVG Version: 6.00 Build 0)  -->
<!DOCTYPE svg PUBLIC "-//W3C//DTD SVG 1.1//EN" "http://www.w3.org/Graphics/SVG/1.1/DTD/svg11.dtd">
<svg version="1.1" id="Layer_1" xmlns="http://www.w3.org/2000/svg" xmlns:xlink="http://www.w3.org/1999/xlink" x="0px" y="0px"
	 width="100px" height="100px" viewBox="0 0 100 100" enable-background="new 0 0 100 100" xml:space="preserve">
<g>
	<path fill="#8BC53F" d="M46.262,24.911c-0.021,0.017-0.042,0.054-0.085,0.107C46.24,24.922,46.283,24.858,46.262,24.911z"/>
	<g>
		<path fill="#00B5BD" d="M92.819,61.176c-0.684-5.66-1.506-8.607-4.731-11.619c-3.229-3.235-7.318-4.955-11.842-4.955h-9.685
			V25.665c0-1.938,0.865-3.443,2.371-4.95c1.506-1.511,3.663-2.371,5.808-2.371h-8.179c-4.518,0-8.394,1.506-11.831,4.955
			c-2.896,2.894-4.592,6.572-4.727,11.052c3.328,3.15,6.508,6.866,9.349,11.085c3.813,5.638,6.578,11.484,8.288,17.09v-1.351h19.155
			c1.72,0,3.584,0.951,4.731,2.371c1.452,1.772,1.506,2.114,2.136,4.271L92.819,61.176z"/>
		<g>
			<g>
				<path fill="#00B5BD" d="M29.763,56.222c3.226,3.235,7.102,4.954,11.618,4.954h9.687v18.938c0,0.71-0.149,1.395-0.396,2.035
					c2.605,0.107,4.988-0.46,6.983-1.805c0.098-0.069,0.183-0.14,0.273-0.204c6.188-7.746,4.186-23.55-5.388-37.727
					c-0.817-1.207-1.67-2.36-2.551-3.481v5.67H31.055c-1.938,0-3.48-0.822-4.953-2.371c-1.213-1.265-1.25-3.7-1.72-6.021
					l0.427,8.393C25.028,49.119,26.534,53.001,29.763,56.222z"/>
				<path fill="#00B5BD" d="M49.146,84.583c-0.06,0.064-0.107,0.127-0.171,0.191c0.357-0.031,0.704-0.079,1.057-0.127
					C49.732,84.625,49.444,84.609,49.146,84.583z"/>
			</g>
		</g>
		<path fill="#00B5BD" d="M27.052,16.081c0,5.093-4.123,9.226-9.216,9.226s-9.226-4.133-9.226-9.226
			c0-5.094,4.133-9.226,9.226-9.226S27.052,10.987,27.052,16.081z"/>
		<path fill="#58595B" d="M63.294,45.436c-9.813-14.523-23.524-23.226-34-22.628c8.799,0.833,19.419,8.115,27.176,19.605
			C67.244,58.366,68.44,76.393,59.15,82.66c-9.301,6.28-25.564-1.568-36.338-17.517c-2.264-3.364-4.101-6.809-5.516-10.226
			c1.724,5.328,4.394,10.85,7.993,16.178c12.338,18.271,30.85,27.349,41.337,20.258C77.123,84.268,75.627,63.706,63.294,45.436z"/>
		<path fill="#58595B" d="M55.327,43.193c-0.117-0.171-0.233-0.331-0.353-0.492c9.478,14.373,10.711,30.252,2.68,35.67
			c-8.114,5.484-22.647-1.824-32.44-16.331c-8.425-12.478-10.598-26.205-5.873-33.296c-6.241,7.037-4.491,22.115,4.623,35.624
			C34.002,79.228,49.155,86.536,57.815,80.69C66.47,74.845,65.355,58.058,55.327,43.193z"/>
	</g>
</g>
</svg>
