<?xml version="1.0" encoding="utf-8"?>
<!-- Generator: Adobe Illustrator 16.0.0, SVG Export Plug-In . SVG Version: 6.00 Build 0)  -->
<!DOCTYPE svg PUBLIC "-//W3C//DTD SVG 1.1//EN" "http://www.w3.org/Graphics/SVG/1.1/DTD/svg11.dtd">
<svg xmlns="http://www.w3.org/2000/svg" xmlns:xlink="http://www.w3.org/1999/xlink" version="1.1" id="Layer_1" x="0px" y="0px" width="100px" height="100px" viewBox="0 0 100 100" enable-background="new 0 0 100 100" xml:space="preserve">

<g>
	<path fill="#6D6E70" d="M85.169,72.928c-7.781-7.912-7.843-14.897-0.188-22.79c0.205-0.177,0.41-0.354,0.604-0.548   c4.03-4.027,4.03-10.56,0-14.586c-4.025-4.032-10.562-4.032-14.591,0c-4.029,4.026-4.026,10.559,0,14.586   c0.197,0.194,0.399,0.371,0.606,0.548c7.651,7.892,7.591,14.875-0.19,22.785c-0.137,0.126-0.28,0.242-0.416,0.376   c-0.196,0.199-0.375,0.404-0.555,0.617c-7.895,7.644-14.873,7.576-22.786-0.207c-0.124-0.14-0.235-0.277-0.368-0.41   c-4.028-4.024-10.56-4.03-14.589,0c-4.028,4.028-4.028,10.563,0,14.591c4.029,4.03,10.561,4.03,14.589,0   c0.139-0.136,0.258-0.279,0.382-0.421c7.903-7.765,14.874-7.832,22.758-0.211c0.184,0.216,0.366,0.433,0.568,0.632   c4.029,4.03,10.565,4.03,14.591,0c4.03-4.028,4.03-10.563,0-14.591C85.452,73.168,85.309,73.049,85.169,72.928L85.169,72.928z"/>
	<path fill="#F05A28" d="M47.285,49.59c4.029-4.027,4.029-10.56,0-14.586c-4.028-4.032-10.56-4.032-14.589,0   c-4.028,4.026-4.028,10.559,0,14.586C36.726,53.62,43.257,53.62,47.285,49.59L47.285,49.59z"/>
	<path fill="#6D6E70" d="M51.273,68.112c0.183,0.216,0.37,0.429,0.572,0.631c4.029,4.028,10.56,4.028,14.589,0   c4.029-4.03,4.029-10.564,0-14.592c-0.135-0.136-0.276-0.25-0.418-0.377c-7.776-7.912-7.837-14.891-0.188-22.785   c0.205-0.175,0.41-0.352,0.606-0.549c4.029-4.023,4.029-10.559,0-14.588c-4.029-4.027-10.56-4.027-14.589,0.002   c-4.029,4.029-4.029,10.563,0,14.586c0.191,0.197,0.396,0.374,0.602,0.549c7.654,7.895,7.593,14.874-0.188,22.785   c-0.139,0.127-0.282,0.241-0.413,0.377c-0.196,0.196-0.379,0.404-0.557,0.614c-7.894,7.646-14.875,7.581-22.787-0.207   c-0.121-0.139-0.237-0.277-0.364-0.407c-4.031-4.029-10.563-4.029-14.592,0c-4.029,4.027-4.029,10.562,0,14.592   c4.029,4.028,10.562,4.028,14.592,0c0.135-0.14,0.253-0.28,0.382-0.424C36.418,60.557,43.393,60.491,51.273,68.112L51.273,68.112z"/>
</g>
</svg>
