<?xml version="1.0" encoding="utf-8"?>
<!-- Generator: Adobe Illustrator 16.0.0, SVG Export Plug-In . SVG Version: 6.00 Build 0)  -->
<!DOCTYPE svg PUBLIC "-//W3C//DTD SVG 1.1//EN" "http://www.w3.org/Graphics/SVG/1.1/DTD/svg11.dtd">
<svg xmlns="http://www.w3.org/2000/svg" xmlns:xlink="http://www.w3.org/1999/xlink" version="1.1" id="Layer_1" x="0px" y="0px" width="100px" height="100px" viewBox="0 0 100 100" enable-background="new 0 0 100 100" xml:space="preserve">

<g>
	<linearGradient id="SVGID_13_" gradientUnits="userSpaceOnUse" x1="96.2695" y1="32.9116" x2="9.2614" y2="92.9614">
		<stop offset="0.0051" style="stop-color:#000000"/>
		<stop offset="0.4975" style="stop-color:#333333"/>
		<stop offset="1" style="stop-color:#4D4D4D"/>
	</linearGradient>
	<path fill="url(#SVGID_13_)" d="M90.229,32.116l-8.427,2.39l3.143,2.307c-1.534,2.047-11.407,14.962-13.175,17.3l2.507,2.369   l13.271-17.76l2.931,2.151L90.229,32.116z"/>
	<linearGradient id="SVGID_14_" gradientUnits="userSpaceOnUse" x1="28.2764" y1="40.7407" x2="78.5972" y2="23.2005">
		<stop offset="0" style="stop-color:#29A9E1"/>
		<stop offset="0.7363" style="stop-color:#1B75BB"/>
		<stop offset="1" style="stop-color:#13619B"/>
	</linearGradient>
	<path fill="url(#SVGID_14_)" d="M13.923,63.152l8.478-11.864L32.85,62.779l11.187-35.915l12.893,26.952l7.688-14.359l8.156,7.572   l7.688-10.256c-0.905-8.026-9.387-15.015-19.288-15.732L28.34,18.658c-10.129-0.739-17.666,6.613-16.822,16.42L13.923,63.152z"/>
	
		<linearGradient id="SVGID_15_" gradientUnits="userSpaceOnUse" x1="-350.418" y1="450.0313" x2="-349.3377" y2="450.0313" gradientTransform="matrix(-102.353 -255.8826 -255.8826 102.353 79365.0859 -135599.1875)">
		<stop offset="0.0051" style="stop-color:#000000"/>
		<stop offset="0.4975" style="stop-color:#333333"/>
		<stop offset="1" style="stop-color:#4D4D4D"/>
	</linearGradient>
	<path fill="url(#SVGID_15_)" d="M80.954,43.589L73.37,53.704l-7.544-7.001L56.7,63.735L44.92,39.109L34.801,71.594L22.822,58.416   l-8.077,11.306c2.043,8.024,9.467,13.726,17.952,13.454l15.215-1.199l17.615-1.44c9.851-0.805,17.384-8.156,16.822-16.42   L80.954,43.589z"/>
</g>
</svg>
