<?xml version="1.0" encoding="utf-8"?>
<!-- Generator: Adobe Illustrator 16.0.0, SVG Export Plug-In . SVG Version: 6.00 Build 0)  -->
<!DOCTYPE svg PUBLIC "-//W3C//DTD SVG 1.1//EN" "http://www.w3.org/Graphics/SVG/1.1/DTD/svg11.dtd">
<svg xmlns="http://www.w3.org/2000/svg" xmlns:xlink="http://www.w3.org/1999/xlink" version="1.1" id="Layer_1" x="0px" y="0px" width="100px" height="100px" viewBox="0 0 100 100" enable-background="new 0 0 100 100" xml:space="preserve">

<g>
	<path fill="#58595B" d="M32.923,80.673c-14.759-8.52-21.372-26.883-14.771-43.105c7.215-17.717,27.494-26.264,45.214-19.052   c13.18,5.368,21.281,17.97,21.595,31.364l6.646,2.705c0.781-17.015-9.067-33.476-25.721-40.254   c-21.13-8.6-45.316,1.592-53.919,22.718c-7.993,19.638,0.252,41.91,18.418,51.86L32.923,80.673z"/>
	<path fill="#1B75BB" d="M90.863,58.698l-0.234,0.087l0.023-0.045c-12.312,3.87-14.981,3.152-32.167-8.285   C41.3,39.02,31.018,55.19,31.018,55.19s16.717-9.773,24.941,2.38c7.112,10.512,19.146,11.048,24.026,10.999   C71.491,82.672,53.884,89.052,38.09,83.114L35.57,89.3c20.916,7.966,44.551-2.219,53.034-23.054   C89.615,63.764,90.358,61.236,90.863,58.698z"/>
	<path fill="#58595B" d="M59.813,73.096c0,0-2.813-15.472-19.41-12.097c-16.597,3.373-18.849,3.093-27.007-3.658l0.565,8.999   l3.093,1.129c0,0,13.5,7.03,23.065-0.283C49.686,59.871,59.813,73.096,59.813,73.096z"/>
	<path fill="#1B75BB" d="M69.156,41.811c0,3.467-2.811,6.276-6.272,6.276c-3.463,0-6.272-2.81-6.272-6.276   c0-3.462,2.81-6.269,6.272-6.269C66.346,35.542,69.156,38.349,69.156,41.811z"/>
</g>
</svg>
