<?xml version="1.0" encoding="utf-8"?>
<!-- Generator: Adobe Illustrator 16.0.0, SVG Export Plug-In . SVG Version: 6.00 Build 0)  -->
<!DOCTYPE svg PUBLIC "-//W3C//DTD SVG 1.1//EN" "http://www.w3.org/Graphics/SVG/1.1/DTD/svg11.dtd">
<svg version="1.1" id="Layer_1" xmlns="http://www.w3.org/2000/svg" xmlns:xlink="http://www.w3.org/1999/xlink" x="0px" y="0px"
	 width="100px" height="100px" viewBox="0 0 100 100" enable-background="new 0 0 100 100" xml:space="preserve">
<g>
	<g>
		<path fill="#26A9E0" d="M86.847,47.673v-2.797h-6.802v-3.26h-5.776v-3.355h-9.597v-3.074h-7.735v3.167H47.62v6.337h-5.685v4.659
			h-7.547v6.801h-3.635v-3.354h-6.71v-5.03h3.077v-2.891h9.597v-3.167h10.436v-7.547h14.63v-3.728h4.752v3.542h9.782v2.979h2.237
			v3.449h6.896v2.423h3.073V47.3h1.677V41.15h-3.072v-2.423h-6.896v-3.447h-2.237v-2.984h-9.783v-3.539h-8.105v3.726H45.476v7.547
			H35.04v3.169h-9.6v2.888h-3.074v8.384h6.71v3.358h6.058v1.487h2.979v2.983h7.92V58.76h5.052c-0.087-0.588,0.054-1.214,0.42-1.675
			h-7.147v3.54h-4.567v-2.98H36.81v-1.493h-0.746v-5.124h7.55v-4.659h5.684v-6.337h9.317v-3.167h4.38v3.076h9.598v3.353h5.775v3.261
			h6.805v2.797h6.71v1.771h-3.543v2.888H75.854v3.075h-5.388c0.313,0.486,0.435,1.103,0.32,1.675h6.745v-3.072h12.485v-2.891h3.54
			v-5.124H86.847z"/>
	</g>
	<rect x="7.27" y="53.116" fill-rule="evenodd" clip-rule="evenodd" fill="#26A9E0" width="12.406" height="1.37"/>
	<rect x="7.27" y="49.589" fill-rule="evenodd" clip-rule="evenodd" fill="#26A9E0" width="12.406" height="1.374"/>
	<rect x="7.27" y="46.065" fill-rule="evenodd" clip-rule="evenodd" fill="#26A9E0" width="12.406" height="1.373"/>
	<g>
		<path fill-rule="evenodd" clip-rule="evenodd" fill="#1B75BB" d="M55.17,58.725c0,0.525,0,1.052,0,1.577c0.542,0,1.087,0,1.629,0
			c0-4.342,0-8.688,0-13.032c0.525,0.032,1.187-0.066,1.628,0.051c0,3.243,0,6.483,0,9.724c0.544,0,1.086,0,1.63,0
			c0.035-1.614-0.07-3.361,0.052-4.888c0.509,0,1.019,0,1.527,0c0.117-0.441,0.017-1.102,0.05-1.629c-0.542,0-1.087,0-1.629,0
			c0-1.628,0-3.259,0-4.887c-1.63,0-3.258,0-4.887,0c-0.035,3.784,0.068,7.705-0.052,11.404c-0.527,0-1.054,0-1.579,0
			c0,0.543,0,1.086,0,1.629C54.067,58.709,54.727,58.605,55.17,58.725z"/>
		<path fill-rule="evenodd" clip-rule="evenodd" fill="#1B75BB" d="M61.686,52.157c0,1.63,0,3.258,0,4.888c0.544,0,1.086,0,1.628,0
			c0.035-1.068-0.065-2.275,0.054-3.258c0.525,0,1.052,0,1.576,0c0-0.545,0-1.086,0-1.63C63.857,52.157,62.771,52.157,61.686,52.157
			z"/>
		<path fill-rule="evenodd" clip-rule="evenodd" fill="#1B75BB" d="M64.943,53.787c0,1.628,0,3.258,0,4.887c0.545,0,1.087,0,1.629,0
			c0.034-1.07-0.066-2.274,0.052-3.259c0.524,0,1.051,0,1.579,0c0-0.542,0-1.087,0-1.628C67.116,53.787,66.03,53.787,64.943,53.787z
			"/>
		<path fill-rule="evenodd" clip-rule="evenodd" fill="#1B75BB" d="M51.96,57.045c0.526,0,1.055,0,1.579,0c0-0.544,0-1.085,0-1.63
			c-1.086,0-2.172,0-3.258,0c0,1.63,0,3.259,0,4.887c0.544,0,1.086,0,1.63,0C51.944,59.234,51.844,58.028,51.96,57.045z"/>
		<path fill-rule="evenodd" clip-rule="evenodd" fill="#1B75BB" d="M51.911,60.302c0,0.545,0,1.086,0,1.631c0.542,0,1.086,0,1.628,0
			c0-0.545,0-1.086,0-1.631C52.997,60.302,52.453,60.302,51.911,60.302z"/>
		<path fill-rule="evenodd" clip-rule="evenodd" fill="#1B75BB" d="M53.539,61.933c0,1.085,0,2.172,0,3.256c0.542,0,1.087,0,1.631,0
			c0-1.084,0-2.171,0-3.256C54.626,61.933,54.081,61.933,53.539,61.933z"/>
		<path fill-rule="evenodd" clip-rule="evenodd" fill="#1B75BB" d="M55.17,65.188c0,1.089,0,2.173,0,3.262c0.542,0,1.087,0,1.629,0
			c0-1.089,0-2.173,0-3.262C56.257,65.188,55.712,65.188,55.17,65.188z"/>
		<path fill-rule="evenodd" clip-rule="evenodd" fill="#1B75BB" d="M68.203,55.415c0,0.545,0,1.086,0,1.63c0.541,0,1.086,0,1.63,0
			c-0.035,2.699,0.066,5.533-0.052,8.144c-0.527,0-1.054,0-1.578,0c-0.035,1.069,0.067,2.276-0.052,3.262c-0.526,0-1.051,0-1.579,0
			c0,0.541,0,1.083,0,1.627c-2.698-0.032-5.532,0.069-8.146-0.051c0-0.525,0-1.052,0-1.576c-0.543,0-1.087,0-1.628,0
			c0,1.083,0,2.173,0,3.256c3.8,0,7.601,0,11.404,0c0.035-1.067-0.069-2.273,0.051-3.256c0.525,0,1.052,0,1.579,0
			c0.066-1.055-0.137-2.374,0.102-3.262c0.509,0,1.018,0,1.527,0c0-3.256,0-6.515,0-9.773
			C70.375,55.415,69.289,55.415,68.203,55.415z"/>
	</g>
</g>
</svg>
