<?xml version="1.0" encoding="utf-8"?>
<!-- Generator: Adobe Illustrator 16.0.0, SVG Export Plug-In . SVG Version: 6.00 Build 0)  -->
<!DOCTYPE svg PUBLIC "-//W3C//DTD SVG 1.1//EN" "http://www.w3.org/Graphics/SVG/1.1/DTD/svg11.dtd">
<svg version="1.1" id="Layer_1" xmlns="http://www.w3.org/2000/svg" xmlns:xlink="http://www.w3.org/1999/xlink" x="0px" y="0px"
	 width="100px" height="100px" viewBox="0 0 100 100" enable-background="new 0 0 100 100" xml:space="preserve">
<g>
	<path fill="#26A9E0" d="M63.098,45.353c-0.87-0.66-1.571-1.252-2.188-1.775c-0.46-0.388-0.888-0.745-1.327-1.089
		c-1.166,0.477-2.444,0.739-3.778,0.739c-5.539,0-10.044-4.506-10.044-10.044c0-5.542,4.506-10.045,10.044-10.045
		c5.537,0,10.047,4.502,10.047,10.045c0,1.893-0.526,3.661-1.437,5.175c0.599,1.102,1.331,2.214,2.2,3.196
		c0.246,0.277,0.495,0.539,0.75,0.791c2.001-2.521,3.193-5.701,3.193-9.162c0-8.152-6.604-14.754-14.754-14.754
		c-7.99,0-14.48,6.354-14.733,14.282c-1.393,0.874-4.777,2.741-8.856,3.143c-4.327,0.427-8.766-1.068-10.312-1.657
		c-0.756-0.396-1.606-0.625-2.52-0.625c-2.987,0-5.415,2.428-5.415,5.42c0,2.989,2.427,5.414,5.415,5.414
		c1.261,0,2.418-0.433,3.336-1.153c4.764-2.9,6.284-2.676,10.203-3.869c3.321-1.01,7.928-0.293,9.51,0.003
		c2.345,5.045,7.444,8.549,13.372,8.549c2.849,0,5.505-0.809,7.759-2.205C63.41,45.602,63.254,45.471,63.098,45.353z"/>
	<path fill="#00A69C" d="M45.021,62.105c-5.042-2.39-5.692-3.78-8.847-6.399c-2.386-1.988-4.188-5.595-4.984-7.392
		c1.887-2.339,3.078-5.268,3.244-8.464c-0.461,0.073-0.885,0.172-1.281,0.29c-1.042,0.319-1.931,0.539-2.714,0.736
		c-0.313,0.077-0.606,0.15-0.899,0.229c-0.943,4.57-4.997,8.011-9.84,8.011c-5.538,0-10.044-4.507-10.044-10.048
		c0-5.539,4.506-10.048,10.044-10.048c4.111,0,7.654,2.486,9.209,6.033c0.561,0.051,1.141,0.083,1.721,0.083
		c0.519,0,1.025-0.022,1.51-0.074c0.58-0.051,1.141-0.146,1.689-0.258C32,28.734,26.366,24.312,19.699,24.312
		c-8.146,0-14.754,6.609-14.754,14.757c0,8.148,6.609,14.757,14.754,14.757c2.211,0,4.295-0.5,6.175-1.37
		c1.329,0.584,5.009,2.408,7.737,5.784c2.741,3.382,3.933,7.909,4.292,9.525c0.083,0.845,0.363,1.682,0.864,2.447
		c1.644,2.497,5.003,3.186,7.501,1.541s3.193-5.002,1.549-7.501C47.124,63.201,46.126,62.48,45.021,62.105z"/>
	<path fill="#1B75BB" d="M84.695,60.251c-0.249-2.977-2.868-5.188-5.852-4.939c-1.256,0.104-2.371,0.638-3.226,1.427
		c-4.506,3.297-6.035,3.193-9.846,4.717c-2.544,1.014-5.973,1.02-8.094,0.899c-0.304-0.899-0.689-1.784-1.18-2.645
		c-4.041-7.074-13.053-9.542-20.134-5.502c-0.127,0.078-0.254,0.154-0.388,0.236c0.23,0.236,0.465,0.455,0.704,0.653
		c0.839,0.698,1.515,1.318,2.11,1.867c0.318,0.29,0.615,0.565,0.92,0.833c4.627-1.999,10.14-0.236,12.697,4.244
		c2.742,4.812,1.065,10.962-3.745,13.709c-4.815,2.746-10.959,1.064-13.706-3.748c-1.849-3.231-1.689-7.067,0.07-10.069
		c-0.548-1.096-1.217-2.198-2.027-3.199c-0.267-0.324-0.547-0.642-0.828-0.944c-3.673,4.589-4.397,11.131-1.307,16.548
		c4.042,7.075,13.053,9.542,20.13,5.504c4.241-2.425,6.81-6.634,7.333-11.137c1.377-1.023,4.527-3.069,8.447-3.792
		c4.276-0.788,8.827,0.325,10.418,0.784c0.784,0.328,1.65,0.484,2.558,0.411C82.733,65.856,84.949,63.234,84.695,60.251z"/>
	<path fill="#29B473" d="M86.951,47.905c-4.265-2.39-9.197-2.421-13.327-0.538c-1.581-0.653-4.959-2.304-7.597-5.287
		c-2.882-3.257-4.277-7.73-4.704-9.331c-0.122-0.841-0.439-1.669-0.969-2.405c-1.753-2.426-5.137-2.967-7.564-1.217
		c-2.423,1.756-2.964,5.137-1.215,7.562c0.736,1.02,1.763,1.702,2.887,2.027c5.144,2.167,5.848,3.525,9.111,6.004
		c2.183,1.657,3.957,4.595,4.951,6.475c-0.617,0.723-1.179,1.515-1.66,2.375c-1.3,2.322-1.901,4.844-1.877,7.331
		c0.17-0.057,0.338-0.117,0.491-0.185c1.017-0.399,1.881-0.694,2.648-0.956c0.597-0.207,1.147-0.394,1.698-0.604
		c0.185-1.126,0.561-2.237,1.147-3.285c2.708-4.836,8.84-6.562,13.676-3.86c4.832,2.709,6.563,8.847,3.856,13.677
		c-2.708,4.838-8.842,6.563-13.676,3.856c-1.76-0.985-3.105-2.428-3.978-4.091c-0.293-0.017-0.586-0.027-0.88-0.027
		c-1.083,0-2.109,0.091-3.053,0.262c-0.345,0.068-0.679,0.145-1.007,0.23c1.172,3.168,3.436,5.951,6.619,7.733
		c7.109,3.984,16.103,1.45,20.082-5.663C96.594,60.876,94.057,51.882,86.951,47.905z"/>
</g>
</svg>
