<?xml version="1.0" encoding="utf-8"?>
<!-- Generator: Adobe Illustrator 16.0.0, SVG Export Plug-In . SVG Version: 6.00 Build 0)  -->
<!DOCTYPE svg PUBLIC "-//W3C//DTD SVG 1.1//EN" "http://www.w3.org/Graphics/SVG/1.1/DTD/svg11.dtd">
<svg version="1.1" id="Layer_1" xmlns="http://www.w3.org/2000/svg" xmlns:xlink="http://www.w3.org/1999/xlink" x="0px" y="0px"
	 width="100px" height="100px" viewBox="0 0 100 100" enable-background="new 0 0 100 100" xml:space="preserve">
<g>
	<path fill="#1F70B7" d="M75.473,65.791c0,9.797-7.941,17.738-17.74,17.738s-17.747-7.941-17.747-17.738
		c0-9.801,7.948-17.742,17.747-17.742S75.473,55.99,75.473,65.791z"/>
	<polygon fill="#1F70B7" points="42.716,24.401 39.998,24.401 39.998,9.765 	"/>
	<path fill="#1F70B7" d="M57.732,41.048c10.758,0,19.903,6.873,23.312,16.461V24.347H39.985V48.56
		C44.481,43.932,50.768,41.048,57.732,41.048z"/>
	<path fill="#2A235D" d="M81.044,74.066c-2.627,7.393-8.663,13.166-16.226,15.426h16.226V74.066z"/>
	<path fill="#1F70B7" d="M32.997,65.791c0-1.584,0.153-3.129,0.434-4.625L15.77,73.484v16.008h34.876
		C40.438,86.445,32.997,76.986,32.997,65.791z"/>
	<polygon fill="#2A235D" points="32.734,24.347 15.77,24.347 15.77,64.434 32.734,53.34 	"/>
	<path fill="#1F70B7" d="M39.985,48.599v-0.04c-0.03,0.033-0.061,0.07-0.091,0.101L39.985,48.599z"/>
	<g>
		<path fill="#FFFFFF" d="M58.459,51.5l-0.086,0.037l-0.072,0.031l-0.135-0.006l-0.098,0.049l-0.074,0.01l-0.078,0.023l-0.068,0.023
			l-0.049,0.021l-0.055,0.064l-0.055,0.055l-0.049,0.031l-0.043,0.082l-0.024,0.059l-0.043,0.082l-0.03,0.068l-0.055,0.061
			l-0.043,0.037l-0.061,0.055l-0.037,0.055l-0.049,0.07l-0.055,0.021H57.14c0,0-0.024,0.012-0.049,0.018
			c-0.03,0.008-0.098,0.031-0.098,0.031h-0.062h-0.049l-0.098,0.006h-0.158h-0.062h-0.049l-0.092-0.016l-0.043-0.039l-0.073-0.021
			l-0.03-0.033l-0.056-0.037l-0.018-0.064l-0.037-0.076l-0.024-0.023l0.067-0.043l0.073,0.018l0.036-0.01l0.025-0.088l-0.037-0.043
			l-0.086,0.055l-0.079,0.012c0,0-0.036,0-0.055-0.012c-0.024-0.006-0.079-0.031-0.079-0.031l-0.037-0.043l-0.073-0.023
			l-0.085-0.016l-0.031-0.076l-0.073,0.02l-0.073-0.02l-0.055,0.049c-0.013-0.029-0.062-0.049-0.062-0.049l-0.092-0.006v-0.082
			c0,0,0,0-0.024,0c-0.018,0-0.098,0-0.098,0l-0.036-0.041l-0.067-0.061l-0.086-0.033l-0.079,0.01l-0.079,0.008h-0.104h-0.079
			l-0.092-0.008h-0.079l-0.067,0.016l-0.086-0.025l-0.104,0.018l-0.092,0.041l-0.055-0.01l-0.08,0.01l-0.061,0.018l-0.062,0.018
			l-0.054,0.035l-0.05,0.055h-0.067h-0.079h-0.043l-0.128,0.021l-0.086,0.037l-0.086,0.023l-0.078,0.006l-0.074,0.033l-0.061,0.043
			l-0.049,0.033l-0.049,0.014l-0.073,0.006l-0.031,0.023l-0.048,0.047l-0.014,0.07l0.037,0.031l-0.012,0.023
			c0,0-0.031,0.027-0.055,0.027c-0.025,0-0.117,0-0.117,0l-0.066,0.023l-0.055,0.021c0,0-0.02,0-0.02,0.037s0,0.064,0,0.064
			l-0.006,0.059l-0.03,0.023c0,0-0.012,0-0.036-0.018c-0.025-0.016-0.055-0.029-0.055-0.029s-0.037,0-0.05,0.029
			c-0.012,0.037-0.049,0.092-0.049,0.092l-0.056,0.061l-0.042,0.049l-0.062,0.059l-0.049,0.064l-0.03,0.049v0.066
			c0,0,0.007,0.012,0,0.059c-0.006,0.053-0.036,0.131-0.036,0.131l-0.135,0.023h-0.08l-0.066,0.031l-0.066,0.055l-0.068-0.008
			l-0.079,0.008l-0.049,0.008h-0.122l-0.067-0.021l-0.03,0.006l-0.049,0.033l0.018,0.025l0.037,0.029c0,0,0,0.043,0,0.068
			s0.012,0.066,0.012,0.066l0.111-0.016c0,0,0.055,0,0.097,0c0.043,0,0.092,0,0.092,0l-0.013,0.053l-0.043,0.078l-0.036,0.059v0.033
			v0.053l-0.024,0.035l-0.037,0.043l-0.042,0.053l-0.11,0.01c0,0-0.036-0.01-0.073-0.01c-0.036,0-0.073,0-0.073,0l-0.055,0.025
			c0,0-0.013,0.033-0.037,0.033c-0.018,0-0.104,0-0.122,0c-0.024,0-0.067,0-0.067,0l-0.036,0.016l-0.062,0.043l-0.061,0.006H50.75
			h-0.092l0.012-0.123l0.08-0.018c0,0-0.007-0.02,0.036-0.02c0.042,0,0.085-0.023,0.085-0.023s0.013-0.025,0.049-0.025
			c0.037,0,0.086-0.01,0.086-0.01l0.013-0.074c0,0-0.013,0.006-0.05,0c-0.035-0.014-0.104-0.031-0.104-0.031l-0.072,0.037
			l-0.08,0.006l-0.067-0.043l-0.043-0.037c0,0-0.055,0.014-0.055-0.018s0.019-0.059,0.019-0.059l0.079-0.039
			c0,0,0.024-0.063,0.043-0.07c0.024-0.008,0.073-0.016,0.073-0.016l0.073-0.025l0.062-0.047l-0.013-0.107l-0.036-0.025l0.023-0.113
			c0,0,0.086-0.029,0.104-0.029c0.024,0,0.079-0.092,0.079-0.092s0.061-0.037,0.067-0.074c0.013-0.031,0.043-0.092,0.062-0.092
			c0.023,0,0.066-0.023,0.066-0.023l0.104-0.055c0,0,0.03-0.078,0.006-0.078c-0.019,0-0.055-0.008-0.073-0.008
			c-0.024,0-0.08,0-0.08,0l-0.127,0.008l-0.062,0.027l-0.056,0.051l-0.036,0.029l-0.067,0.049l-0.055,0.043l-0.055,0.049
			l-0.037,0.049l-0.055,0.049l-0.067,0.068l-0.03,0.043l-0.02,0.072l-0.035,0.074l-0.037,0.066l-0.007,0.066v0.074l-0.109,0.023
			l-0.049,0.043l-0.085,0.074l-0.08,0.012l-0.104,0.021l-0.061,0.086H49.9l-0.061,0.051l-0.055,0.063l-0.073,0.027l-0.067,0.049
			l-0.067,0.051l-0.03,0.025l-0.043,0.029l-0.067,0.006l-0.049,0.035l-0.061,0.051l-0.067,0.057l-0.013-0.1v-0.072
			c0,0-0.03,0.006-0.055,0.018c-0.018,0.006-0.104,0.047-0.104,0.047l-0.08,0.059l-0.146,0.105l-0.049,0.053l-0.085,0.049
			l-0.086,0.066l-0.079,0.074l-0.14,0.115l-0.086,0.043l-0.152,0.195l-0.067,0.066l-0.068,0.043l-0.036,0.045l-0.073,0.07
			l-0.098,0.107l-0.042,0.051l-0.067,0.059l-0.037,0.043l-0.104,0.115l-0.074,0.152L47.42,55.68l-0.061,0.115l-0.074,0.074
			l-0.116,0.127l-0.067,0.107l-0.019,0.09l-0.024,0.09l-0.055,0.068l-0.03,0.059l0.03,0.07l0.037,0.012l0.013-0.043l0.024-0.033
			h0.098l0.012,0.059c0,0-0.006-0.01-0.006,0.023c0,0.035,0.019,0.107,0.019,0.107l-0.08,0.168l-0.085,0.09l-0.067,0.068
			l-0.141,0.137l-0.098,0.125l-0.141,0.16l-0.104,0.104l-0.073,0.098l-0.055,0.092l-0.104,0.115l-0.067,0.072l-0.073,0.039
			l-0.073,0.029l-0.067,0.037l-0.079,0.049l-0.08,0.039l-0.055,0.053l-0.049,0.055l-0.067,0.068h-0.067l-0.08,0.012l-0.037,0.012
			l-0.037,0.066l-0.03,0.074l-0.025,0.08l-0.042,0.104l-0.061,0.066l-0.019,0.074l-0.049,0.115c0,0-0.018,0.016-0.042,0.068
			c-0.024,0.049-0.074,0.141-0.074,0.141l-0.098,0.082l-0.03,0.033l-0.049,0.064l-0.006-0.025l-0.03,0.016l-0.049,0.043
			l-0.055,0.068l-0.061,0.133l-0.042,0.049l0.03-0.168l0.085-0.135l0.042-0.113l0.08-0.158l0.018-0.088l0.056-0.059l0.037-0.1
			c0,0,0.067-0.09,0.067-0.115c0-0.027,0.104-0.197,0.104-0.197l0.116-0.217l0.067-0.117c0,0,0.037-0.096,0.061-0.115
			c0.037-0.014,0.074-0.084,0.074-0.084l0.024-0.096l0.055-0.053l0.054-0.131l0.062-0.223l0.073-0.146c0,0,0.03-0.07,0.049-0.102
			c0.012-0.033,0.031-0.1,0.031-0.1l0.03-0.117l0.019-0.088l-0.074,0.045l-0.067,0.141l-0.061,0.102l-0.049,0.082l-0.061,0.076
			l-0.055,0.117l-0.049,0.125l-0.067,0.072c0,0-0.036,0.051-0.043,0.074c-0.006,0.023-0.036,0.082-0.036,0.082l-0.061,0.064
			l-0.043,0.129c0,0-0.024,0.055-0.036,0.078c-0.012,0.023-0.042,0.082-0.042,0.082l-0.025,0.09l-0.067,0.133l-0.012,0.137
			L45,58.508l-0.054,0.086l-0.08,0.164l-0.037,0.117l-0.092,0.162l-0.067,0.148l-0.091,0.119l-0.067,0.131l-0.068,0.176
			l-0.061,0.082l-0.042,0.098l-0.067,0.189l-0.042,0.15l-0.061,0.148l-0.061,0.117l-0.043,0.109l-0.061,0.146l-0.061,0.082
			l-0.031,0.082c0,0,0,0.084,0,0.111c0,0.021-0.012,0.037,0,0.072c0.018,0.033,0.037,0.049,0.037,0.049l-0.037,0.119l-0.043,0.07
			l-0.037,0.135l-0.024,0.156l0.006,0.076l-0.042,0.121l-0.085,0.078l-0.073,0.088l-0.042,0.092v0.086v0.037l-0.043,0.133
			l-0.012,0.104v0.063h0.055l0.006-0.148c0,0-0.006-0.1,0.019-0.092c0.03,0.01,0.11,0.01,0.11,0.01s0.048-0.033,0.085-0.033
			c0.037,0,0.085-0.043,0.085-0.043s0.019-0.082,0.037-0.082c0.024,0,0.073-0.064,0.073-0.064l0.037-0.043l0.03-0.051l0.037-0.033
			l0.042-0.084v-0.131l0.019-0.129l0.03-0.07l0.092-0.023c0,0,0.03-0.053,0.067-0.053c0.037,0,0.061-0.064,0.061-0.064l0.061-0.088
			l0.055-0.061c0,0,0.042-0.02,0.042,0.035c0,0.051,0,0.129,0,0.129l0.012,0.049h0.11c0,0,0.042-0.049,0.055-0.072
			c0.019-0.025,0.037-0.111,0.037-0.111l0.104,0.006l0.025,0.113l0.055,0.01l-0.03,0.082l0.006,0.033l0.085,0.025
			c0,0,0.043,0.018,0.068,0.018c0.024,0,0.14-0.037,0.14-0.037l0.007-0.055l0.037-0.117l0.079-0.107l0.018-0.09l0.08-0.084
			l0.074,0.109l0.098,0.014l0.049-0.023l0.024-0.121l0.061-0.043l0.042,0.023v0.135l0.007,0.109l-0.031,0.105l-0.061,0.105
			l-0.024,0.133l-0.018,0.115l0.067,0.012l0.019,0.088c0,0,0.024,0.01,0.049,0.01c0.024,0,0.042-0.043,0.042-0.043l0.024-0.049
			l0.061-0.006l0.122,0.023v0.074l-0.006,0.105l0.006,0.057l0.073,0.064l0.061-0.031v0.061l0.037,0.041c0,0,0.067,0.053,0.085,0.053
			c0.025,0,0.098,0,0.098,0s0.043-0.037,0.067-0.014c0.025,0.025,0.025,0.057,0.025,0.057l-0.055,0.068l-0.116,0.016l-0.091,0.049
			l-0.055,0.061l-0.062,0.037l-0.042,0.029L46.015,62.4l-0.03,0.063l-0.006,0.119l-0.043,0.049v0.031l-0.013,0.066v0.107
			l0.049,0.059h0.085l0.013,0.033l-0.031,0.033l-0.024,0.066l0.037,0.09l-0.037,0.055l-0.024,0.047l0.019,0.066l0.067,0.039
			l0.055-0.063c0,0,0.012-0.08,0.036-0.105c0.031-0.023,0.122-0.039,0.122-0.039l0.068,0.049l0.061,0.033v0.068l0.055,0.057
			l0.067,0.01l0.043,0.055l0.116,0.025l0.128,0.061l0.055-0.08l0.055-0.07l0.098,0.016l0.013,0.092l0.03,0.068l0.03,0.082h0.049
			c0,0,0.012-0.053,0.03-0.053c0.025,0,0.049-0.029,0.049-0.029l0.019-0.057l0.036-0.066c0,0,0.019-0.02,0.019-0.063
			c0-0.041,0.025-0.09,0.025-0.09l0.018-0.053v-0.086c0,0,0.013-0.045,0.031-0.045c0.024,0,0.08-0.014,0.08-0.014l0.019-0.09
			l0.042-0.037l0.061-0.039l0.067,0.008c0,0,0.006,0.014,0.006,0.037c0,0.031-0.012,0.037-0.012,0.068
			c0,0.018-0.031,0.061-0.031,0.061l-0.091,0.066l-0.049,0.039l-0.073,0.059v0.092l-0.019,0.098l-0.006,0.123l0.006,0.078
			l0.091-0.008l0.013-0.053l0.037,0.043l0.019-0.078l0.03-0.051l0.037-0.018v0.098v0.088v0.059l-0.061,0.061l-0.042,0.025
			l-0.055,0.072l0.067,0.02l0.067,0.018c0,0,0.055-0.018,0.073-0.029c0.025-0.008,0.067-0.105,0.067-0.105l0.03-0.043h0.08
			l0.031-0.043l0.085-0.023l0.061-0.066l0.024-0.055l0.006-0.086l-0.037-0.08l0.006-0.098l0.024-0.086v-0.104l0.043-0.012
			l0.042-0.027l0.037-0.033l0.062,0.002l0.006-0.082l0.006-0.107l0.055,0.064l0.006,0.141l-0.03,0.049l-0.055,0.035l-0.049,0.035
			l-0.055,0.039v0.043l-0.018,0.074l0.018,0.057l0.049,0.016l0.043-0.016l0.067-0.033l0.067-0.006l0.135-0.033l0.116,0.016
			l0.074,0.023l0.024,0.092l0.013,0.098l0.012,0.109l-0.055,0.012l-0.042-0.072l-0.037-0.023l-0.104-0.049h-0.074h-0.067
			l-0.067,0.023l-0.068,0.043v0.059l-0.042,0.047l-0.055,0.047l-0.055,0.047l-0.085,0.072l-0.085,0.053l-0.092,0.055l-0.043,0.043
			l-0.055,0.066h-0.062l-0.061,0.025L47.5,64.096l-0.031,0.057v0.088l0.006,0.078l0.043,0.033h0.092l0.043-0.033l0.067,0.006
			l0.049,0.018l0.091,0.01l0.006-0.076l0.061-0.016l0.062-0.01c0,0,0.03,0,0.06-0.01c0.031-0.006,0.043-0.039,0.043-0.039
			l0.012-0.078l0.019-0.063l0.031-0.049l0.079-0.043l0.061-0.043l0.08,0.043l-0.055,0.127l-0.043,0.08l-0.018,0.092l-0.037,0.111
			l-0.006,0.141l-0.006,0.123l-0.019,0.096l0.007,0.074h0.055l0.024-0.043l0.085-0.014l0.08,0.063l0.067,0.086l-0.043,0.018
			l-0.055,0.014l-0.019,0.072l0.067,0.055l0.006,0.092l0.012,0.098l0.055,0.043l0.043,0.055v0.074l-0.055,0.037l-0.049,0.006
			l-0.024,0.109h0.055l0.03,0.041v0.08l0.006,0.068l0.073,0.082l0.08,0.131l0.061,0.086l0.098,0.025l0.024,0.066l0.019,0.08v0.066
			l-0.037,0.049L48.813,66.4l-0.049,0.018l-0.03-0.018l-0.012-0.033l-0.019-0.088l-0.048-0.02l-0.067,0.037l-0.037,0.068
			l-0.006,0.08v0.037h0.067l0.08,0.059l0.042,0.006c0,0,0.055,0.031,0.08,0c0.019-0.021,0.049-0.07,0.049-0.07l0.085,0.025
			l0.128,0.014l0.006,0.078l-0.062,0.049l-0.042,0.063l0.012,0.096l0.068,0.033l0.03,0.08l0.031,0.076l0.08,0.045l0.061-0.07
			l0.073-0.033l0.055,0.041v0.1l-0.031,0.098l-0.03,0.102l-0.043,0.057l-0.055,0.057l0.031,0.043h0.061l0.036-0.02l0.012-0.061
			c0,0,0.006,0,0.043,0s0.085-0.037,0.085,0.006c0,0.037,0,0.117,0,0.117l-0.036,0.072l-0.043,0.076l-0.049,0.082H49.29
			l-0.091,0.035l-0.049-0.01l-0.03-0.025h-0.049l-0.08,0.041l-0.03,0.049l-0.061,0.057l-0.042,0.037h-0.067l-0.037-0.006l0.03-0.082
			l0.031-0.076l0.037-0.037v-0.064l0.08-0.076v-0.072l0.036-0.049v-0.037l0.013-0.074l0.019-0.055l0.006-0.1l-0.006-0.059
			l-0.019-0.096l-0.031-0.037l-0.036-0.033l-0.049-0.061l-0.091,0.006l-0.08,0.031l-0.037,0.094l-0.043,0.109l-0.067,0.066
			l-0.068,0.1l-0.048,0.076l-0.055,0.074v0.078l-0.012,0.113l-0.067,0.117l-0.061,0.049l-0.012,0.063l0.006,0.117l-0.061,0.023
			l-0.043,0.02l-0.019-0.043v-0.074v-0.043h-0.042l-0.049,0.043l-0.031,0.059l0.031,0.053l0.024,0.088l-0.048,0.051l0.042,0.031
			l-0.042,0.092l0.079,0.086l-0.006,0.064l-0.073-0.021l-0.055-0.043l0.012,0.098l0.061,0.059l0.061,0.045l-0.03,0.074l-0.019,0.029
			l0.067,0.064l-0.043,0.107l0.024,0.059l0.025,0.1v0.064c0,0-0.018,0.111,0.012,0.125c0.043,0.016,0.055,0,0.08,0.016
			s0.037,0.119,0.037,0.119l0.067,0.08l-0.012,0.049l0.079,0.115v0.061c0,0,0.055,0.031,0.055,0.059c0,0.021,0.013,0.09,0.013,0.09
			l0.042,0.121l0.067,0.066l0.067,0.117c0,0,0,0.061,0.025,0.061c0.03,0,0.073,0.08,0.073,0.08l0.055,0.102
			c0,0-0.024,0.08,0.012,0.088c0.037,0.012,0.068,0.051,0.068,0.051v0.102l0.03,0.119l0.104,0.045l0.007-0.115l0.042,0.043
			l0.019,0.098l-0.031,0.064v0.088v0.172l0.006,0.07l0.061,0.027v0.066l0.037,0.098l0.037,0.055l0.042,0.053l-0.006,0.053v0.041
			l0.073,0.104l0.043-0.078v-0.066l0.012-0.063l0.037-0.006l0.012,0.08v0.078l-0.012,0.08c0,0-0.024,0.031,0.006,0.043
			c0.024,0.006,0.092,0.006,0.092,0.006l0.024-0.066l0.049,0.061l0.104,0.121l0.098,0.043l0.048,0.117l0.055,0.025l0.055-0.02
			l0.043-0.039l0.061-0.01l0.037-0.049v-0.098v-0.055c0,0-0.006-0.049-0.006-0.074c0-0.023-0.043-0.08-0.043-0.08l-0.037-0.055
			l0.006-0.127l-0.061-0.049l-0.085-0.043l-0.049-0.035l0.024-0.039l0.098,0.031l0.079,0.027l0.085,0.006l0.019,0.021l0.128,0.012
			l0.055,0.037l0.098,0.025l0.073-0.025l0.092,0.039h0.067l0.049,0.045l0.072,0.045l0.068,0.023l0.055,0.006l0.03-0.012l0.024-0.092
			l-0.006-0.092l-0.067-0.033l-0.036-0.041l-0.049-0.039l-0.006-0.045l0.023-0.08v-0.086l-0.037-0.07l-0.049-0.014
			c0,0-0.03-0.055-0.055-0.086c-0.018-0.033-0.066-0.059-0.098-0.068c-0.024-0.006-0.079-0.029-0.079-0.029l-0.049-0.049
			l-0.08-0.014c0,0-0.037,0.043-0.049,0c-0.012-0.035-0.012-0.088-0.012-0.088l0.006-0.107l-0.031-0.018h-0.061l-0.055,0.068
			l-0.03,0.035v-0.104c0,0,0.006-0.037,0.019-0.066c0.006-0.025,0.006-0.049,0.006-0.049l0.006-0.098l-0.067-0.037l-0.061,0.018
			l-0.055,0.025l-0.006,0.115c0,0,0,0-0.024-0.016c-0.024-0.018-0.037-0.047-0.061-0.047c-0.024,0-0.079-0.01-0.079-0.01
			l-0.055-0.043l-0.024-0.064c0,0-0.043,0-0.043-0.021c0-0.027-0.03-0.061-0.03-0.061h-0.073l-0.08-0.043l-0.006-0.082h-0.037
			l-0.024-0.107l-0.024-0.082c0,0-0.013-0.053-0.019-0.076c-0.006-0.025-0.019-0.047-0.019-0.047v-0.119l-0.037-0.012l-0.03-0.098
			l-0.037-0.025l-0.043-0.012l-0.098-0.074l-0.092-0.078l-0.036-0.049l-0.043-0.055l-0.006-0.074v-0.092l0.012-0.084l0.03-0.074
			l0.074-0.043l0.104,0.006l0.042,0.061V68.9l0.024,0.047l0.061,0.061l0.042,0.072l0.031,0.094l0.043,0.074l0.037,0.084l0.036,0.063
			l0.013,0.092l0.067,0.061l0.116,0.072l0.123,0.006l0.091,0.078l0.086,0.006l0.073-0.025l0.061-0.088h0.08l0.031-0.043
			c0,0,0.006-0.012,0.006-0.066c0-0.049,0-0.092,0-0.113c0-0.027-0.024-0.102-0.024-0.102l-0.019-0.082c0,0,0-0.092,0-0.113
			c0-0.027-0.013-0.061-0.013-0.086c0-0.023-0.006-0.141-0.006-0.141l0.037-0.035l0.024-0.057l0.037-0.016l0.006-0.068L50.23,68.6
			l0.055,0.02v0.164l0.006,0.102l0.049,0.039v0.119l-0.018,0.033l-0.037,0.098l-0.024,0.041l0.012,0.117v0.123
			c0,0-0.019,0.043,0.006,0.043c0.018,0,0.043,0.098,0.043,0.098l0.067,0.006l0.08,0.07c0,0,0.043-0.01,0.043-0.033
			c0-0.025,0.012-0.111,0.012-0.111l0.067,0.049l0.085,0.02l0.067,0.059l0.073,0.039v0.043l-0.012,0.049l-0.043,0.043l-0.037,0.023
			l-0.055,0.025L50.633,69.9l-0.023,0.049l0.036,0.043l0.024,0.051l0.062,0.029l0.024,0.076l0.109,0.064l0.074,0.037L51,70.23
			l0.08,0.043l0.061,0.025l0.055,0.049v0.078l-0.019,0.037l-0.006,0.033l0.05,0.059l0.029,0.088l0.006,0.096v0.049l-0.042,0.023
			l-0.062,0.025l-0.03,0.074l0.019,0.074l0.006,0.092l0.019,0.051l0.012,0.137l0.037,0.143l0.019,0.107l0.023,0.012l-0.061,0.104
			l-0.092-0.006l-0.036,0.031v0.049l-0.019,0.068l0.024,0.1l-0.019,0.088l-0.018,0.086h-0.031l-0.066,0.006l-0.043,0.043
			L50.793,72.1l-0.092-0.016l-0.056-0.063l-0.062-0.07l-0.023-0.096c0,0,0-0.066,0-0.1s-0.037-0.053-0.037-0.053l-0.03,0.059
			l-0.031,0.027l-0.042-0.018l-0.018-0.037l-0.062-0.08l-0.018-0.01l-0.049-0.016h-0.037l0.012,0.105l0.042,0.104v0.113l0.049,0.1
			l0.098,0.01l0.085,0.039l0.061,0.049h0.074l0.073,0.025l0.085,0.018l0.043,0.043l0.074,0.025l0.061,0.043L51,72.359l0.067,0.039
			v0.041L51.006,72.5l-0.043,0.041v0.055l0.067,0.01l-0.012,0.074l-0.043,0.074l-0.013,0.043v0.068l0.043,0.029
			c0,0,0.067,0.023,0.092,0.049c0.018,0.023,0.073,0.086,0.073,0.086l-0.019,0.021h-0.055c0,0-0.049-0.006-0.043,0.018
			c0.013,0.025,0.049,0.076,0.049,0.076l0.073,0.059l0.05,0.021l0.079,0.035l-0.007,0.031l-0.006,0.117l-0.012,0.023v0.102v0.125
			l0.006,0.092l0.073,0.049l0.073,0.066l0.006,0.08v0.082l0.007,0.076l0.062,0.025l0.006,0.066l-0.013,0.08l-0.03,0.051
			l-0.049,0.031l-0.055,0.016l0.012,0.045l0.049,0.01l0.061,0.039l0.08,0.031l0.012,0.09l-0.037,0.053v0.068l-0.072,0.012
			l-0.08,0.096l0.006,0.105l0.05,0.059l0.085,0.016l0.067-0.025l0.042-0.033l0.074-0.057l0.073-0.043l0.086-0.012l0.054,0.045
			c0,0,0.063,0.016,0.086,0.016c0.031,0,0.092-0.055,0.092-0.055l0.104,0.055l0.067,0.012l0.085,0.006l0.025,0.082l0.067,0.07
			l0.062,0.068l0.098,0.072l0.079,0.055l0.055,0.123l-0.067,0.146l-0.049,0.07l-0.055,0.076l-0.043,0.064v0.063l-0.061,0.086
			l-0.049,0.059l-0.031,0.076l-0.079,0.074l-0.037,0.029l-0.048,0.043l-0.014,0.059l0.025,0.049v0.086v0.064l0.061,0.014l0.08,0.029
			l0.055,0.033l0.061,0.033l0.086,0.064l0.092,0.027l0.079,0.104l0.092,0.043l0.085,0.102l0.08,0.088l0.098,0.117l0.056,0.066
			l0.091,0.012l0.03-0.029l0.062-0.014c0,0,0.018,0.043,0.049,0.049c0.03,0.006,0.098,0.055,0.098,0.055l0.098,0.117h0.086
			l0.018-0.043l0.05-0.064v-0.105l0.013-0.078l0.104-0.016c0,0-0.007-0.008,0.055-0.008c0.055,0,0.098,0,0.098,0L54.098,77
			l0.036-0.063l-0.013-0.102c0,0-0.006-0.037-0.006-0.063c0-0.023,0-0.129,0-0.129l0.043-0.061l0.024-0.061l0.019-0.08l0.031-0.059
			V76.34l-0.014-0.064l-0.029-0.057l-0.074-0.111v-0.086l-0.043-0.082c0,0-0.029-0.018-0.036-0.039
			c-0.006-0.025-0.03-0.025-0.03-0.049c0-0.025,0-0.102,0-0.102l-0.074-0.023h-0.085c0,0-0.056,0.023-0.056,0
			c0-0.025-0.029-0.025-0.042-0.053c-0.013-0.023-0.043-0.064-0.043-0.064l-0.048-0.096l-0.05-0.029l-0.024-0.055l-0.055-0.043
			l-0.037-0.043l-0.006-0.082l-0.012-0.102v-0.078V74.98l-0.013-0.059c0,0-0.019-0.041-0.024-0.066
			c-0.006-0.023-0.031-0.064-0.031-0.064l-0.049-0.027l-0.109-0.006l-0.061-0.037l-0.037-0.031l-0.043-0.033v-0.111l-0.012-0.117
			l0.012-0.043l0.067-0.027l0.013-0.049l0.061-0.051l0.03-0.031l0.024-0.041v-0.049l-0.024-0.076l-0.024-0.035l-0.012-0.061v-0.063
			l-0.006-0.049v-0.055v-0.066l-0.049-0.027l-0.037-0.037l-0.013-0.07l0.025-0.057l0.03-0.061l0.049-0.055l0.073-0.029l0.079,0.029
			l0.109,0.006l0.068-0.018l0.098-0.006l0.055-0.049l0.055-0.043l0.073-0.037l0.11-0.037l0.092-0.018l0.061-0.021l0.019-0.059
			c0,0-0.024-0.086,0-0.086s0.056-0.049,0.056-0.049l0.091-0.043l0.067-0.072l0.049-0.018h0.08l0.061-0.031l0.006-0.066h0.092
			l0.135-0.014h0.085l0.062,0.02l0.006,0.043l0.073,0.049l0.073,0.041l0.031-0.006v-0.084c0,0-0.02-0.031-0.031-0.057
			c-0.012-0.023-0.03-0.055-0.03-0.055l-0.055-0.031l-0.062-0.012l-0.012-0.068l-0.025-0.049H54.83h-0.055l-0.062,0.033h-0.048
			l-0.062-0.025l-0.043-0.023l-0.03-0.051l-0.006-0.076l0.049-0.055l0.049-0.033l0.061-0.023l0.049-0.012l0.006-0.066l-0.072-0.027
			l-0.08,0.014l-0.066,0.055l-0.056,0.025l-0.037,0.074l-0.062,0.049l-0.048,0.041l-0.037,0.061l-0.036,0.031l-0.037,0.059
			l-0.043-0.049l-0.049-0.01c0,0-0.012,0.018-0.012,0.043c0,0.023,0,0.066,0,0.066l-0.037,0.066c0,0-0.03,0.016-0.055,0.031
			c-0.019,0.018-0.061,0.055-0.061,0.055l-0.067,0.02h-0.093h-0.029h-0.068h-0.061l-0.061,0.012l-0.055,0.072l-0.074,0.055
			l-0.086-0.006l-0.066-0.006l-0.049-0.023l-0.062-0.037h-0.067l-0.049-0.055v-0.061l-0.018-0.08v-0.094l0.023-0.031l0.043,0.016
			l0.031,0.023l0.061,0.006h0.055l0.031-0.023l-0.019-0.07l-0.048-0.053l0.054-0.033c0,0,0.104,0,0.122,0
			c0.024,0,0.129,0.016,0.129,0.016l0.061-0.008l0.08-0.035l0.092-0.047l0.006-0.105l0.104-0.105l0.08-0.018l0.03-0.053l0.042-0.039
			l0.043-0.012l0.031-0.055l0.073-0.043l0.048-0.033l0.062-0.047l0.073,0.006l0.067,0.031l0.116-0.006c0,0-0.006,0.039,0.024,0.049
			s0.091,0.061,0.091,0.061l0.104,0.008l0.036-0.037l0.08-0.016l0.086-0.096l0.061-0.043l0.037-0.057l0.061,0.033l0.043,0.029
			l0.067-0.006l0.024-0.09l0.006-0.078V71.58l0.013-0.061l0.036-0.029l0.012-0.059l0.068-0.01l0.018,0.035L55.38,71.52l-0.03,0.037
			l-0.012,0.066v0.037v0.074l0.006,0.061l0.049,0.051l0.043-0.021l0.018-0.041h0.067l0.049-0.037l0.079,0.049l0.049-0.006
			l-0.006-0.055l-0.055-0.049l0.073-0.031l0.036-0.018l-0.012-0.074l0.08-0.025l-0.037-0.053l-0.098,0.012l-0.049,0.008h-0.086
			l-0.018-0.039l0.036-0.014l0.013-0.045c0,0,0-0.014-0.019-0.014c-0.024,0-0.093,0.014-0.093,0.014l-0.018-0.033l0.006-0.055
			l0.031-0.027v-0.059l-0.031-0.023l-0.066,0.018l-0.062,0.029l-0.024-0.006l-0.061,0.021l-0.049,0.078v0.043l-0.074-0.025
			L55.1,71.33l-0.074-0.006l-0.055,0.006l-0.049,0.02h-0.049h-0.061l-0.037-0.008l-0.037-0.012v-0.074l0.074-0.014l0.061-0.01
			l0.006-0.061l-0.006-0.045l-0.055-0.078l-0.049-0.018l-0.037-0.064v-0.064v-0.066c0,0,0.006-0.025,0.006-0.086
			c0-0.055,0-0.088,0-0.088l0.049-0.033l0.062-0.133v-0.088l-0.042-0.086V70.25v-0.08v-0.074v-0.061l-0.014-0.051h-0.036
			l-0.036,0.018l-0.037,0.064l-0.043,0.006l-0.049,0.018l-0.049,0.025l-0.055,0.027h-0.043l-0.055-0.01l-0.012-0.043l-0.068-0.041
			l-0.066-0.014l-0.037-0.043v-0.066l-0.073-0.049l-0.056-0.01l-0.035-0.016l-0.086-0.049l-0.086-0.047l-0.019-0.037l0.031-0.057
			l-0.013-0.08l-0.066,0.014l-0.056-0.02L53.7,69.568l-0.042-0.008l-0.008-0.1l-0.048-0.043l-0.056-0.029l-0.006-0.035l-0.037-0.064
			l-0.035-0.09l-0.013-0.049v-0.096l0.091-0.012l0.056-0.047l0.03-0.049v-0.104v-0.055l0.006-0.031l0.043-0.049l0.024,0.043v0.063
			l0.037,0.08l0.067,0.029l0.023-0.023l0.05-0.1l0.048-0.012l0.074,0.018h0.061l0.037-0.035v-0.047l-0.031-0.051l-0.006-0.055
			c0,0-0.03-0.006-0.03-0.033c0-0.025-0.024-0.08-0.024-0.08l-0.006-0.059l-0.043-0.014l-0.006-0.084v-0.045l-0.012-0.074
			l-0.031-0.059c0,0-0.062-0.012-0.062,0.049c0,0.059,0,0.092,0,0.092l-0.006,0.08l-0.019,0.055l-0.037,0.012l-0.035,0.047
			l-0.02,0.055L53.7,68.594l-0.05,0.043l-0.006-0.092c0,0,0.006-0.049,0-0.074c-0.006-0.023-0.029-0.072-0.029-0.072l-0.013-0.049
			l-0.03-0.08l-0.037-0.092l-0.018-0.037v-0.109l-0.043-0.092l-0.019-0.033v-0.082l-0.037-0.033v-0.064l-0.013-0.049L53.4,67.594
			l0.043-0.045l0.043,0.076l0.031,0.053l0.042,0.031l0.006,0.066v0.055h0.043l0.042-0.078c0,0,0.043-0.031,0.05,0
			c0.006,0.033,0.024,0.09,0.024,0.09l0.024,0.064h0.062l0.042,0.064l0.019,0.068l0.024,0.051l0.116-0.023l0.074-0.137l0.054-0.063
			l0.024-0.082l0.037-0.049l0.049-0.096l0.037-0.016l0.049-0.049l0.061-0.051l0.055-0.025l0.019-0.049l0.03-0.08l0.025-0.061
			c0,0-0.02-0.033,0.006-0.033c0.024,0,0.043-0.021,0.043-0.021l0.092-0.061l0.066-0.074l0.074,0.025l0.085,0.076l0.03,0.063
			l0.086,0.1l0.049,0.066v0.092l-0.049,0.051v0.096l0.018,0.08v0.09v0.09l-0.03,0.076l-0.006,0.121c0,0,0.012,0.031-0.019,0.059
			c-0.031,0.025-0.031,0.025-0.031,0.025l-0.012,0.059l-0.043,0.061h-0.03l-0.03,0.031l-0.031,0.053v0.086l-0.042,0.025
			l-0.062,0.033v0.107l0.013,0.072v0.057l-0.013,0.133v0.076l0.019,0.074l0.043,0.076l0.024,0.064l0.031,0.051l0.036,0.057
			l0.036,0.092v0.066l-0.018,0.043l-0.019,0.098l-0.013,0.064v0.053l-0.012,0.066v0.039l0.043,0.01v-0.049l0.012-0.025l0.055-0.018
			v0.098c0,0-0.012,0.037,0.006,0.055c0.025,0.012,0.025,0.012,0.025,0.012l0.012,0.123v0.084v0.057l-0.031,0.037v0.064
			l-0.023,0.041l0.006,0.033l0.018,0.074l0.025,0.049l0.061,0.043l0.074,0.049l0.078,0.037v-0.074c0,0-0.018-0.045,0.007-0.045
			c0.03,0,0.122,0.01,0.122,0.01l0.08-0.01l0.042,0.059l0.036,0.082l0.031-0.064l0.024-0.066c0,0,0.007-0.051,0.024-0.043
			c0.024,0.008,0.086,0.023,0.086,0.023s0-0.064,0.023-0.031c0.037,0.031,0.098,0.057,0.098,0.057s-0.029-0.074,0-0.057
			c0.031,0.016,0.074-0.006,0.074-0.006v-0.104l0.006-0.063l0.055-0.01l0.025-0.043l0.006-0.074l0.055-0.012
			c0,0-0.019-0.055,0.019-0.043c0.036,0.006,0.062-0.012,0.062-0.012l0.018-0.043l0.019-0.029l0.012-0.051l0.013-0.086v-0.072
			l-0.08-0.021l-0.066-0.033l-0.013-0.07l0.013-0.127l0.019-0.041l0.036-0.061l0.067-0.037l0.079-0.049l0.043-0.074
			c0,0-0.006-0.1,0-0.121c0.006-0.025,0.006-0.123,0.006-0.123s0-0.043-0.012-0.068c-0.02-0.023-0.055-0.074-0.055-0.074
			l-0.043-0.039l-0.031-0.031l0.019-0.105l0.024-0.049l0.024-0.049l-0.024-0.041l-0.043-0.059v-0.09l0.086,0.064l0.055,0.051h0.109
			h0.117c0,0,0.055,0,0.085,0c0.031,0,0.099,0.008,0.099,0.008l0.042,0.025c0,0,0.024,0.055,0.062,0.066
			c0.023,0.006,0.135,0.072,0.135,0.072l0.085,0.086c0,0,0.03,0.006,0.073,0.025c0.043,0.016,0.135,0.078,0.135,0.078l0.109,0.037
			l0.086,0.039l0.104,0.102l0.073,0.104l0.013,0.104v0.063l-0.024,0.146l-0.062,0.072l-0.043,0.059l-0.049,0.07v0.125l0.013,0.096
			l-0.013,0.133l0.024,0.178l0.062,0.059v0.1l-0.037,0.117l-0.049,0.113l-0.061,0.115l-0.037,0.113l-0.061,0.1v0.137l-0.012,0.105
			l-0.02,0.098l-0.066,0.037l-0.031,0.006l-0.073,0.131l-0.006,0.15l-0.049,0.068l-0.056,0.072l-0.079,0.023l-0.042,0.006
			l-0.056,0.086l-0.03,0.074l-0.019,0.152l-0.006,0.129l0.006,0.094l0.037,0.08c0,0,0.024,0.033,0.042,0.051
			c0.025,0.02,0.08,0.041,0.08,0.041l0.104,0.01l0.123,0.023l0.091,0.074l0.056,0.127c0,0,0,0.1,0,0.123s-0.074,0.09-0.074,0.09
			l-0.072,0.051l-0.074,0.055l-0.055,0.131l-0.061,0.07l-0.025,0.129l-0.043,0.078l-0.055,0.031h-0.049h-0.055h-0.086l-0.036,0.018
			l-0.086,0.074l-0.055,0.09l-0.056,0.102l-0.048,0.059l-0.024,0.139l-0.007,0.1l-0.042,0.049l-0.056,0.033l-0.036,0.041
			l-0.031,0.049l-0.055,0.066l-0.061,0.025l-0.062,0.072l-0.073,0.068l-0.037,0.01c0,0-0.066-0.01-0.066-0.035
			c0-0.023-0.025-0.092-0.025-0.092l-0.049-0.072L55.6,74.252l-0.023-0.057l-0.037-0.018l-0.049-0.01h-0.073l-0.05,0.018h-0.066
			l-0.061-0.018l-0.025-0.047l-0.023-0.066l-0.025-0.041H55.13h-0.062v0.023v0.055l-0.012,0.037l-0.062,0.023l-0.056,0.043
			l-0.042,0.092c0,0-0.006,0.016,0,0.039c0.013,0.025,0.024,0.076,0.024,0.076v0.096l-0.006,0.107l-0.092,0.09l-0.018,0.088
			l-0.031,0.088v0.1v0.074l-0.037,0.068c0,0-0.036,0.012-0.036,0.055c0,0.053-0.024,0.158-0.024,0.158l-0.049,0.104l-0.006,0.055
			v0.055l-0.025,0.076l-0.006,0.053l-0.03,0.121v0.133v0.137c0,0,0.03,0.074,0.03,0.092c0,0.031,0,0.105,0,0.105l0.006,0.084
			l0.043,0.109l-0.012,0.102l-0.055,0.094l-0.043,0.064c0,0-0.055,0.059-0.055,0.09c0,0.037-0.02,0.123-0.02,0.123l-0.092,0.047
			l-0.055,0.006l-0.078,0.033l-0.043,0.025l0.035,0.076c0,0,0.044,0.031,0.063,0.061c0.023,0.037,0.078,0.074,0.078,0.074
			l0.044,0.043c0,0,0.042,0.066,0.061,0.109c0.024,0.037,0.036,0.082,0.036,0.107c0,0.023-0.006,0.088,0,0.125
			c0.014,0.033,0.014,0.158,0.014,0.158s0.006,0.055,0.018,0.08c0.019,0.025,0.115,0.061,0.115,0.061l0.025,0.117l0.073,0.061
			l0.056,0.076l0.085,0.113l0.067,0.012l0.121,0.049l0.111,0.023l0.061,0.053l0.03,0.072l0.067,0.133l0.006,0.156
			c0,0,0.043,0.07,0.049,0.094c0.013,0.025,0.013,0.07,0.013,0.07v0.07l-0.03,0.064c0,0-0.007,0.064,0.018,0.064
			c0.031,0,0.135,0.092,0.135,0.092s0.019,0.033,0.03,0.059c0.013,0.027,0.024,0.148,0.024,0.148s0.037,0.055,0.061,0.074
			c0.037,0.018,0.153,0.123,0.153,0.123l0.073,0.068l0.043,0.102l0.067,0.074l0.073,0.055c0,0,0.024,0.035,0.043,0.061
			c0.024,0.023,0.066,0.061,0.066,0.061s0.025,0,0.049,0.027c0.031,0.033,0.123,0.15,0.123,0.15l0.098,0.084l0.073,0.025
			c0,0,0.043,0,0.073,0c0.031,0,0.085,0,0.085,0l0.122-0.01l0.111,0.01l0.042,0.055l0.067,0.025l0.158,0.012
			c0,0,0.062-0.012,0.08,0.006c0.024,0.02,0.098,0.037,0.122,0.037c0.019,0,0.104,0.076,0.104,0.076l0.109,0.057l0.128,0.053
			c0,0,0.05,0.059,0.067,0.059c0.024,0,0.092,0.037,0.092,0.037l0.079,0.064l0.024,0.055c0,0,0.086,0.008,0.116,0.008
			s0.073,0,0.098,0c0.019,0,0.122-0.018,0.122-0.018s0.03,0.066,0.062,0.066c0.03,0,0.115,0.02,0.152,0.02s0.056,0.037,0.073,0.037
			c0.024,0,0.189-0.02,0.189-0.02s0.03-0.043,0.062-0.043c0.03,0,0.098-0.051,0.098-0.051v-0.082h0.104l0.086,0.033l0.079-0.016
			l0.043-0.043c0,0,0.013-0.023,0.043-0.023s0.183-0.043,0.183-0.043l0.062-0.016c0,0,0.03-0.041,0.055-0.041
			c0.03,0,0.104,0.025,0.128,0.025c0.019,0,0.129,0.012,0.153,0c0.03-0.01,0.079-0.037,0.11-0.025
			c0.03,0.008,0.115-0.012,0.115-0.012l0.092-0.025l0.043-0.063l0.092-0.033l0.098-0.037l0.146-0.104l0.116-0.051
			c0,0,0.116,0.02,0.135-0.006c0.012-0.029,0.079-0.068,0.079-0.068l0.104-0.031c0,0,0.036-0.07,0.062-0.076
			c0.019-0.012,0.073-0.068,0.097-0.068c0.031,0,0.172-0.121,0.172-0.121l0.067-0.006l0.048-0.08c0,0,0.087,0,0.087-0.018
			c0-0.025,0-0.096,0-0.096l0.012-0.131V79.58l0.03-0.094l0.024-0.088l0.024-0.076l0.031-0.148l0.061-0.082
			c0,0,0.067,0.025,0.08-0.014c0.018-0.045,0.048-0.1,0.061-0.137c0.012-0.029,0.043-0.09,0.043-0.09l0.073-0.148l0.019-0.164
			v-0.141l-0.024-0.152l0.006-0.08l-0.006-0.086v-0.072l0.024-0.072v-0.117l0.036-0.092c0,0,0.024-0.033,0.037-0.055
			c0.006-0.027,0.012-0.154,0.012-0.154l0.037-0.066c0,0,0.085-0.035,0.098-0.084c0.012-0.057,0.073-0.105,0.073-0.105l0.122-0.033
			l0.128-0.027l0.092-0.012l0.092-0.055c0,0,0.098,0,0.098-0.037c0-0.033,0.03-0.16,0.03-0.184c0-0.025,0-0.164,0-0.164
			s0.049-0.025,0.056-0.047c0.006-0.027,0.03-0.059,0.036-0.102c0.013-0.041-0.049-0.096-0.049-0.096l0.146-0.145
			c0,0,0.128-0.016,0.128-0.039c0-0.025,0.037-0.076,0.037-0.076l0.079-0.084h0.129h0.092l0.116,0.006l0.073,0.063l0.073,0.025
			l0.109,0.006c0,0,0.019-0.016,0.056,0c0.036,0.014,0.116,0.014,0.116,0.014l0.066,0.08l0.099,0.023l0.122-0.01l0.097-0.029
			c0,0,0.037-0.094,0.068-0.094c0.03,0,0.085-0.006,0.085-0.006s0.104-0.021,0.109-0.053c0.013-0.025,0.104-0.107,0.104-0.107
			s0.055-0.064,0.073-0.064c0.024,0,0.109-0.1,0.109-0.1l0.086-0.084l0.116-0.115l0.146-0.102l0.146-0.064
			c0,0,0.122-0.012,0.141-0.018c0.024-0.012,0.116-0.066,0.116-0.066l0.122-0.037l0.08-0.08l0.098-0.029l0.072-0.02l0.08-0.086
			l0.104,0.006l0.092,0.031l0.062-0.031l0.085-0.035l0.099-0.082c0,0,0.03-0.047,0.054-0.047c0.024,0,0.159-0.018,0.159-0.018
			s0.098,0.006,0.122,0.006s0.074,0.047,0.074,0.047l0.036,0.111c0,0,0.086,0.049,0.11,0.059c0.024,0.008,0.141,0.059,0.164,0.059
			c0.019,0,0.184,0.018,0.208,0.018c0.019,0,0.146,0.012,0.146,0.012l0.19-0.006l0.116-0.064l0.066-0.076l0.098-0.121L68.3,74.98
			l0.099-0.094l0.098-0.08l0.099-0.074c0,0,0.066-0.051,0.097-0.076c0.031-0.023,0.074-0.063,0.074-0.063l0.06-0.096l0.074-0.059
			c0,0,0.097-0.066,0.116-0.066c0.023,0,0.153-0.021,0.153-0.021l0.079-0.094l0.085-0.051l0.098-0.045l0.11-0.113l0.146-0.078
			l0.086-0.08l0.067-0.068l0.049-0.072c0,0,0.043-0.061,0.062-0.076c0.023-0.016,0.066-0.102,0.066-0.102l0.037-0.109l0.067-0.066
			c0,0,0.073-0.021,0.092-0.043c0.012-0.025,0.085-0.063,0.085-0.094c0-0.035,0.006-0.115,0.031-0.133
			c0.018-0.012,0.104-0.068,0.104-0.068l0.066-0.072l0.067-0.082c0,0,0.043,0,0.073-0.01c0.03-0.006,0.098-0.018,0.098-0.018
			l0.061-0.098l0.099-0.184c0,0-0.006-0.111,0.03-0.111c0.037,0,0.072,0,0.072-0.045c0-0.041,0-0.137,0-0.137l0.008-0.068
			c0,0,0.006-0.066,0.029-0.092c0.019-0.025,0-0.133,0-0.133v-0.1v-0.115v-0.078l0.013-0.121l0.049-0.1l0.012-0.098l0.031-0.117
			v-0.115v-0.182v-0.148v-0.135l-0.062-0.113l-0.012-0.1l-0.043-0.1l-0.018-0.096v-0.086l-0.093-0.051l-0.086-0.096l-0.061-0.068
			l-0.056-0.102v-0.129l-0.061-0.068l-0.085-0.031l-0.062-0.018l-0.104-0.031l-0.062,0.049l-0.055,0.031l-0.049-0.098l-0.043-0.184
			v-0.098l-0.042-0.086l-0.014-0.115l-0.091-0.033l-0.086-0.031h-0.103h-0.104l-0.092,0.082l-0.085,0.068l-0.062,0.049l-0.104,0.035
			l-0.056-0.102l-0.061-0.102l-0.062-0.113l-0.013-0.117l-0.116-0.078l-0.018-0.086l-0.085-0.135l-0.043-0.18v-0.117v-0.131
			l-0.079-0.098l-0.074-0.072l-0.012-0.074l-0.044-0.072l-0.091-0.064l-0.104-0.053l-0.086,0.053h-0.104h-0.074h-0.085h-0.092
			l-0.085,0.033l-0.062-0.016l-0.073-0.033l-0.062-0.018h-0.085l-0.073,0.098l-0.049,0.084l-0.116,0.031l-0.061,0.049l-0.104,0.055
			l-0.086,0.014h-0.091h-0.116l-0.074-0.014l-0.042,0.098l-0.062,0.049l-0.061,0.012l-0.073-0.031l-0.098-0.012l-0.104-0.035
			l-0.061-0.066l-0.074-0.086l-0.104-0.047l-0.085-0.064l-0.074-0.018l-0.072-0.082l-0.062-0.084l-0.061-0.064l-0.074-0.088
			l-0.042-0.098l-0.062-0.098l-0.073-0.061l-0.055-0.037l-0.062-0.082l-0.043-0.064l-0.092-0.119l-0.072-0.113l-0.104-0.115
			l-0.104-0.115l-0.056-0.102l-0.049-0.15l-0.043-0.115l-0.072-0.08l-0.074-0.119l-0.072-0.031l-0.043-0.082l-0.062-0.086
			l-0.055-0.047l-0.062-0.102l-0.03-0.047l-0.104-0.055l-0.091-0.045l-0.043-0.07l-0.073-0.063l-0.043-0.066l-0.043-0.049
			l-0.091-0.018l-0.074-0.02l-0.085-0.063l-0.073-0.064l-0.135-0.084l-0.061-0.033l-0.104-0.018l-0.044-0.082l-0.073-0.016
			l-0.073-0.086l-0.091-0.031l-0.099-0.018l-0.104-0.014l-0.043-0.035l-0.104-0.02h-0.092h-0.116l-0.03,0.01l-0.019,0.033
			l-0.019,0.043l0.031,0.049l0.006,0.084l0.037,0.057v0.092l0.023,0.104l0.037,0.051l0.012,0.066v0.084l0.007,0.08l0.043,0.07v0.131
			v0.086l0.042,0.074l0.024,0.068l0.049,0.086l-0.012,0.102l-0.006,0.043v0.078l0.006,0.111l0.061,0.068l0.031,0.072v0.104
			l-0.007,0.086l-0.024,0.064l-0.042,0.033l-0.031,0.018l-0.066,0.08l-0.037,0.018l-0.03,0.037l-0.024,0.055v0.088l-0.019,0.078
			l-0.03,0.023l-0.037-0.049l-0.019-0.053l-0.006-0.063l-0.049-0.049l-0.043,0.006l-0.049,0.027l-0.049,0.031l-0.049,0.047
			l-0.036,0.063l-0.043,0.064l-0.067,0.061l-0.043,0.055l-0.061,0.059l-0.043,0.057l-0.043,0.051l-0.055,0.043l-0.043,0.049
			l-0.043,0.09l-0.024,0.074l-0.061,0.068l-0.037,0.045l-0.006,0.082l-0.043,0.051l-0.049,0.053l-0.073,0.031l-0.073,0.043
			l-0.062,0.033l-0.061,0.006l-0.055,0.01l-0.056,0.012l-0.036,0.006h-0.062l-0.056,0.018l-0.054,0.055l-0.068,0.045l-0.024,0.008
			l-0.048,0.064l-0.056,0.043l-0.043,0.059l-0.036,0.076l-0.024,0.039l-0.049,0.016l-0.104,0.025h-0.074h-0.061L60.487,68.6
			l-0.049-0.014h-0.067l-0.037,0.027L60.28,68.6h-0.056l-0.067,0.025l-0.043,0.018h-0.085l-0.062,0.025l-0.03,0.051l-0.043,0.039
			l-0.073,0.049L59.778,68.9l-0.043,0.055l-0.073,0.012l-0.073,0.006l-0.073,0.012h-0.067h-0.055l-0.043,0.039l-0.036,0.041
			l-0.073,0.049l-0.086,0.031l-0.122,0.055l-0.079,0.006l-0.067,0.049l-0.079,0.055l-0.092,0.023l-0.074,0.014l-0.066,0.018
			l-0.056,0.01l-0.066,0.016l-0.049,0.049l-0.062,0.018l-0.055,0.049l-0.073,0.037l-0.049,0.006l-0.062,0.021l-0.079,0.027
			l-0.062,0.006l-0.042,0.023h-0.067l-0.073-0.006l0.049-0.059l0.092-0.014l0.079-0.061l0.104-0.018l0.092-0.037l0.049-0.043
			l0.073-0.008l0.019-0.035l0.036-0.051l0.019-0.066l-0.03-0.047h-0.061l-0.086-0.051l-0.049-0.006l-0.062-0.037l-0.073-0.033
			l0.037-0.031l0.109,0.025l0.073,0.031h0.067l0.019-0.084l0.055-0.029l0.073-0.055l0.099-0.018l0.061-0.045l0.104-0.066
			l0.037-0.059l0.049-0.016l0.079-0.006l0.03-0.066l0.056-0.023l0.024-0.035l0.049-0.018l0.079-0.016l0.104,0.006l0.066-0.045
			l0.013-0.029l0.049-0.043c0,0,0.006-0.008,0.006-0.029c0-0.023,0-0.023,0-0.023l0.049-0.049l0.061-0.043l0.074-0.074l0.049-0.043
			l0.067-0.025l0.085-0.057l0.062-0.033h0.098l0.049,0.016h0.098h0.08l0.085-0.033h0.079l0.055-0.037l0.037-0.063l0.055-0.072
			l0.013-0.07l0.018-0.037l0.025-0.051l0.049-0.031l0.024-0.043l0.066-0.025l0.056-0.078l0.073-0.006h0.079l0.019-0.037h0.055
			l0.062-0.045l0.061-0.016l0.019-0.074l0.056-0.043l0.036-0.039l0.018-0.033l0.068-0.061l0.049-0.016l0.049-0.041l0.067-0.023
			l0.085-0.031l0.079,0.006l0.067-0.006l0.062,0.006l0.098-0.006l0.061-0.047l0.11-0.008l0.049-0.031l0.073-0.008l0.037-0.031h0.085
			l0.031-0.027l0.079-0.006l0.019-0.018l0.073-0.014V66.84l0.03-0.033l0.006-0.088v-0.109v-0.094l-0.019-0.064l-0.036-0.068
			l-0.049-0.018l-0.037-0.063l-0.049-0.061v-0.064v-0.053v-0.088v-0.082l-0.018-0.086l-0.019-0.051l-0.024-0.07l-0.043-0.025
			l-0.049-0.049l-0.006-0.068l0.006-0.063v-0.119l-0.024-0.041l-0.037-0.039l-0.042-0.043l-0.037-0.057l-0.019-0.107l-0.055-0.16
			l-0.03-0.063l-0.03-0.084l-0.043-0.037v-0.088l-0.056-0.082l-0.055-0.074l-0.03-0.076l-0.019-0.055l-0.073-0.023l-0.043-0.01
			l-0.037-0.033l-0.055-0.047l-0.023-0.07v-0.053l-0.031-0.047l-0.019-0.074l-0.024-0.043l-0.024-0.055l-0.024-0.061l-0.018-0.037
			v-0.076v-0.082l-0.019-0.057l-0.05-0.084l-0.055,0.006l-0.061-0.023l-0.05-0.043l-0.029-0.063v-0.066l-0.013-0.076l-0.03-0.049
			l-0.05-0.016l-0.066-0.037l-0.062-0.018l-0.037-0.041l-0.018-0.049l-0.019-0.064l-0.012-0.051l-0.031-0.049l-0.043-0.01
			l-0.061,0.02l-0.092,0.006l-0.066-0.016l-0.086-0.01l-0.036-0.043l-0.037-0.039v-0.082l-0.037-0.049l-0.073-0.01l-0.049-0.039
			l-0.049-0.049l-0.079-0.043l-0.037-0.053l-0.043-0.016l-0.042-0.023l-0.056-0.016l-0.043,0.006h-0.042l-0.006,0.039l-0.025,0.063
			l-0.024,0.033l-0.042,0.047l-0.056,0.043l-0.03,0.041l-0.031,0.031l-0.012,0.043l-0.024,0.115l-0.024,0.098l-0.024,0.111
			l-0.043,0.115l-0.019,0.049l-0.061,0.061l-0.049,0.037l-0.085,0.025h-0.08h-0.092h-0.055h-0.073l-0.043,0.066l0.086,0.031
			l0.061,0.055l0.062,0.039l0.085,0.07l0.067,0.055l0.055,0.074l0.062,0.076l0.073,0.033l0.043,0.117v0.109l0.006,0.084l0.007,0.08
			l0.024,0.08l0.042,0.055v0.098l-0.006,0.055l-0.036,0.057L59.4,64.695l-0.037,0.02l-0.043-0.01l-0.042-0.01l-0.037-0.035
			l-0.062,0.006l-0.066,0.029l-0.025-0.006l-0.097,0.006l-0.037,0.027l-0.037,0.041l0.03,0.055l0.05,0.031l0.085-0.031l0.013,0.053
			l0.066-0.006h0.049l0.062,0.014l0.061-0.008l-0.079,0.072l-0.061,0.027l-0.086,0.037l-0.024,0.021l-0.024,0.039h-0.061h-0.05
			l-0.042-0.012l-0.055,0.027l-0.056,0.047l-0.049,0.035l-0.03,0.051l-0.03,0.066l-0.067,0.047l-0.086,0.08l-0.067,0.063
			l-0.055,0.045l-0.067,0.01l-0.055,0.055h-0.062l-0.024,0.035l-0.061,0.057l-0.037,0.092l-0.048-0.043v-0.064l-0.031-0.01h-0.037
			h-0.072v-0.066l-0.02-0.049l-0.023-0.043l-0.062-0.018H57.75v-0.096l0.067-0.018l0.024-0.047l0.037-0.029l-0.006-0.049
			l0.006-0.049l0.03-0.055l0.062-0.029l0.061-0.045c0,0,0.019-0.033,0.055-0.043c0.031-0.006,0.098-0.078,0.098-0.078l0.099-0.064
			l0.091-0.064l0.074-0.051l0.048-0.033v-0.1l0.013-0.074l0.043-0.061c0,0,0.006-0.049,0.037-0.049c0.03,0,0.042-0.072,0.042-0.072
			l0.03-0.127l0.056-0.021l0.024-0.066l0.006-0.109l0.036-0.09v-0.082l-0.018-0.066l-0.037-0.064l-0.055-0.07l-0.049-0.064
			l-0.036-0.111v-0.088l0.018-0.092l0.08-0.053l0.085-0.037l0.073-0.02l0.049-0.055l0.024-0.104v-0.094v-0.092l0.013-0.047
			l0.012-0.104l-0.012-0.072l0.024-0.074v-0.107l-0.013-0.084v-0.084l0.006-0.08l0.007-0.066v-0.092l-0.013-0.074l-0.024-0.084
			l-0.024-0.049v-0.102l-0.006-0.096l-0.043-0.035l-0.036-0.049l-0.007-0.08l0.007-0.055v-0.064v-0.1l-0.031-0.006v-0.068
			l-0.012-0.125l-0.037-0.059L58.71,60.9l-0.031-0.084l0.049-0.059h0.055v-0.039l0.019-0.055l0.043-0.045l0.116-0.035l0.031-0.078
			l0.023-0.076l0.03-0.107l0.093-0.055l0.055-0.063v-0.09v-0.08v-0.086l-0.019-0.055l-0.019-0.07l-0.061-0.043l0.085-0.012
			l0.056,0.031l0.043,0.076l0.018,0.072l0.036,0.068h0.062l0.049-0.094l0.049-0.029c0,0,0.019-0.094,0.037-0.088
			c0.024,0.01,0.067-0.055,0.067-0.055l0.012-0.053l0.012-0.055l0.025-0.086l-0.007-0.061l-0.03-0.063l-0.024-0.066l-0.055-0.033
			l-0.043-0.039l-0.067-0.01l-0.098-0.01h-0.079l-0.043-0.021l-0.006-0.08l0.049-0.006h0.073l0.03-0.023l0.098-0.006l0.073-0.051
			l0.024-0.061l0.092-0.008h0.086l0.055,0.023h0.073l0.03-0.008l0.043-0.047l0.08-0.061l0.072,0.012h0.098l0.062-0.018l0.073-0.037
			l0.043-0.012l0.098-0.068l0.11-0.037l0.091-0.053l0.086-0.049l0.049-0.051l0.08-0.086l0.091-0.016l0.05-0.053l0.048-0.053
			l0.062-0.064l0.061-0.016l0.062-0.029l0.043-0.064l0.079-0.01l0.062-0.023l0.048-0.008l0.068-0.078l0.042-0.08l0.08-0.025
			l0.049-0.078h0.066l0.044-0.018l0.048-0.049l0.067-0.041l0.056-0.045l0.079-0.006l0.067-0.037l0.042-0.057l0.074-0.041
			l0.042-0.049l0.019-0.018l0.024-0.02l0.049-0.037l0.037-0.061l-0.006-0.063l-0.086-0.041l-0.043-0.061h-0.122l-0.036-0.049
			l-0.062-0.051l-0.067-0.066L61.947,57.1h-0.062l-0.048-0.021l-0.093-0.016l-0.018-0.082c0,0,0.006-0.082-0.019-0.076
			c-0.018,0.01-0.086,0.027-0.086,0.027h-0.066l-0.08,0.012l-0.061,0.043h-0.08l-0.085-0.018l-0.049-0.025l-0.049-0.018h-0.067
			h-0.098l-0.056,0.012l-0.061,0.006l-0.104,0.043l-0.122,0.025l-0.066-0.006l-0.092,0.033h-0.079l-0.074-0.027l-0.042-0.068v-0.066
			l-0.062-0.031h-0.055l-0.036-0.049l-0.043-0.057l-0.05-0.078l-0.055-0.012l-0.073-0.018l-0.055-0.053l-0.092-0.055l-0.043-0.033
			l-0.085-0.043l-0.056-0.064l-0.073-0.045l-0.067-0.031l-0.061-0.041l-0.073-0.008l-0.079-0.043l-0.067-0.029l-0.067-0.025
			l-0.073-0.053l-0.049-0.057l-0.073-0.051l-0.067-0.057l-0.067-0.088l-0.085-0.014h-0.129l-0.073,0.02h-0.098l-0.073-0.043
			l-0.067-0.055l-0.079-0.043l0.018-0.043v-0.07l-0.023-0.064l-0.056-0.08l-0.048-0.104l-0.074-0.018l-0.037-0.109l-0.091,0.012
			l-0.079,0.006l-0.062-0.061l-0.019-0.072l0.006-0.084l0.031-0.039l0.073-0.068l0.11-0.018l0.098-0.051
			c0,0,0.036-0.033,0.055-0.047c0.024-0.02,0.042-0.123,0.042-0.123l0.056-0.066l0.049-0.125l0.067-0.092h0.061l0.012-0.049
			l0.025-0.059l0.085-0.037l0.067-0.078l0.062-0.049l0.079-0.014c0,0,0.037-0.006,0.067,0c0.03,0.014,0.11,0.014,0.11,0.014
			l0.079-0.031l0.073-0.043l0.049-0.049v-0.074l-0.049-0.045l-0.073-0.045l-0.073-0.037l-0.074-0.043c0,0-0.03,0-0.048,0
			c-0.024,0-0.067-0.047-0.067-0.047h-0.049h-0.08l-0.03-0.051l0.049-0.025l0.007-0.055l0.03-0.076l0.042-0.053h0.074l0.104-0.006
			l0.092-0.025l0.098-0.047l0.104-0.086l0.073-0.059l0.092-0.055l0.067-0.053l0.062-0.039l0.115-0.021l0.104-0.02l0.056-0.041
			l0.098,0.02l0.11-0.02h0.109l0.092-0.018l0.122-0.02l0.074-0.006l0.104,0.006l0.066-0.023l0.056-0.057l0.024-0.072l0.085-0.066
			l0.067-0.092l0.043-0.068l0.116-0.039l0.061-0.033h0.086l0.104-0.02l0.049-0.018l0.092-0.043l0.067-0.08l0.086-0.018l0.042-0.041
			l0.055-0.039l0.013-0.061l0.024-0.064l0.007-0.107v-0.076l-0.037-0.033l-0.067-0.049l-0.116,0.037l-0.073,0.031l-0.073,0.047
			l-0.098,0.025l-0.061-0.016l-0.074,0.033l-0.079-0.018l-0.08,0.012l-0.061,0.037l-0.079,0.059l-0.013,0.07l-0.049,0.064
			l-0.043,0.057l-0.018,0.086l0.018,0.086l-0.061,0.061l-0.049,0.049l-0.08,0.025l-0.042,0.035l-0.043,0.051l-0.056,0.012
			L60.14,52.77l0.066,0.027l-0.043,0.072h-0.092H59.98l-0.056,0.043l-0.091-0.027l-0.092,0.027l-0.098-0.043h-0.062l-0.098,0.016
			l-0.073,0.008l-0.067-0.018l-0.066,0.027l-0.08,0.012h-0.085l-0.05-0.021l-0.03-0.061l-0.03-0.055l0.03-0.033h0.067l0.061-0.027
			v-0.055l-0.023-0.043l-0.037-0.049v-0.043l0.037-0.018l0.006-0.068l0.049-0.033l0.043-0.064c0,0,0.043-0.041,0.066-0.041
			c0.019,0-0.006-0.074-0.006-0.074l0.092-0.025l-0.019-0.072l0.006-0.086l0.007-0.08l0.097,0.012l0.05-0.021h0.073l0.092-0.039
			l-0.056-0.061l-0.104-0.037l-0.092-0.01l-0.079-0.029l-0.085-0.01l-0.08,0.01h-0.092l-0.043-0.064l-0.042-0.025l-0.067-0.055
			c0,0-0.049-0.014-0.073-0.023c-0.024-0.006-0.086-0.063-0.086-0.063h-0.061l-0.056-0.012l-0.073-0.023l-0.079,0.029L58.459,51.5z
			 M61.336,74.689l0.056,0.102l0.072,0.064l-0.012,0.115c0,0-0.085,0-0.158,0s-0.062,0.068-0.062,0.068s-0.03,0.098-0.073,0.098
			c-0.049,0-0.092,0-0.092,0h-0.085l-0.062-0.064V75.02l0.049-0.049l0.055-0.084h0.074l0.091-0.061l0.013-0.088l0.03-0.049H61.336z
			 M67.097,70.457c0.049,0,0.092,0.031,0.092,0.031l-0.03,0.049l-0.043,0.066l-0.146,0.037l-0.165,0.109l-0.061,0.102l-0.086,0.1
			L66.529,71h-0.153l-0.098,0.02h-0.079h-0.128L65.949,71v-0.064c0,0,0.042-0.051,0.091-0.051c0.043,0,0.129,0,0.129,0h0.121
			c0,0,0.031,0,0.086-0.049c0.062-0.049,0.062,0,0.104-0.049c0.049-0.049,0.115,0,0.146-0.049c0.03-0.049,0.073-0.07,0.073-0.07
			c0.062-0.016,0.177-0.027,0.177-0.08c0-0.051,0.073-0.131,0.122-0.131C67.042,70.457,67.055,70.457,67.097,70.457z M67.555,69.432
			c0.043-0.051,0.135-0.068,0.135-0.068h0.165h0.129h0.115l0.122-0.068l0.178-0.047c0,0,0.061,0.035,0.012,0.066
			c-0.042,0.031-0.073,0.08-0.073,0.08l-0.128,0.104l-0.165,0.016l-0.116,0.047l-0.152-0.08l-0.098,0.033l-0.092,0.082l-0.177,0.029
			v-0.064l0.061-0.08C67.47,69.48,67.513,69.48,67.555,69.432z M65.289,69.561l0.086,0.035v-0.135l0.072,0.02l0.062,0.08l0.03,0.064
			l0.129,0.037c0,0-0.024,0.047,0.018,0.047c0.043,0,0.116,0,0.116,0l0.092,0.033v0.07l0.043,0.131l-0.062,0.117v0.146l0.019,0.086
			l-0.25,0.029l-0.165-0.014l-0.104-0.016l-0.062-0.102l-0.024-0.119v-0.098v-0.133v-0.115V69.561z M55.063,64.299l0.043,0.092
			L55.063,64.5v0.129l0.152,0.037c0,0,0.098-0.012,0.098-0.07c0-0.055-0.012-0.107-0.012-0.107l0.049-0.109l0.086,0.031l0.128-0.01
			c0,0,0.11-0.01,0.141-0.021s0.079-0.012,0.11-0.012c0.023,0,0.121-0.055,0.121-0.055h0.129v0.15v0.123l0.043,0.104
			c0,0,0.006,0.061,0.006,0.129s0,0.141,0,0.141l-0.066,0.125l-0.056,0.082l-0.013,0.137l-0.049,0.111l-0.061,0.059h-0.067
			l-0.11,0.006l-0.066,0.049l-0.098-0.037l-0.166-0.086l-0.141-0.092l-0.109,0.047l-0.08,0.088l-0.085,0.08l-0.079,0.055
			l-0.049,0.055l-0.067,0.076l-0.062,0.031l-0.061,0.025l-0.055,0.074l-0.092,0.055h-0.067h-0.079l-0.067,0.025l-0.03,0.006
			l-0.049,0.09l-0.062,0.055l-0.085-0.033l-0.062-0.053l-0.122-0.064l-0.11-0.025h-0.091l0.012-0.055l0.055-0.02l0.012-0.07
			c0,0,0.031-0.096-0.012-0.096c-0.037,0-0.074,0-0.074,0s-0.054-0.021-0.054-0.055s0-0.131,0-0.131l-0.037-0.092l-0.048-0.086
			l-0.063-0.037l-0.024-0.092v-0.061c0,0,0.013-0.031,0.013-0.068c0-0.029,0-0.107,0-0.107l-0.013-0.043l0.007-0.047l0.03-0.031
			c0,0-0.013-0.064,0.019-0.064s0.098-0.068,0.098-0.068l0.098-0.08l0.043-0.107l0.08-0.033c0,0,0.066-0.156,0.066-0.088
			c0,0.066,0.03,0.121,0.03,0.121l0.007,0.141c0,0-0.019,0.037-0.019,0.092s0,0.166,0,0.166l0.062,0.096l0.048,0.08l0.116,0.021
			l0.019,0.119l-0.007,0.1c0,0,0.08,0.021,0.08-0.008c0-0.037,0.006-0.125,0.006-0.125s0.062-0.055,0.098-0.055
			c0.043,0,0.141-0.064,0.141-0.064l0.019-0.109l0.067-0.043l0.012-0.113c0,0,0.109-0.021,0.141-0.021
			c0.024,0,0.165,0.045,0.165,0.045l0.036-0.078l-0.115-0.076l-0.049-0.08l0.012-0.037l0.074-0.113l0.061-0.057l0.061-0.092
			L55.063,64.299z M53.877,63.076h0.104l0.097,0.057l0.093,0.039c0,0,0.006,0.08,0.006,0.125c0,0.043,0,0.092,0,0.119
			c0,0.033,0,0.145,0,0.145l-0.073,0.029l-0.104,0.049l-0.097,0.068l-0.043-0.057h-0.092l-0.098-0.012l-0.02-0.066v-0.055
			l-0.072-0.043c0,0-0.066,0.061-0.066,0c0-0.068-0.05-0.113-0.05-0.113s-0.049-0.01-0.049-0.039c0-0.037,0-0.092,0-0.092
			L53.4,63.15h0.098l0.099-0.018l0.091-0.037l0.068-0.064l0.043-0.045L53.877,63.076z M52.783,59.924c0,0-0.018,0.074,0.006,0.074
			c0.031,0,0.056,0.055,0.056,0.086c0,0.037,0,0.104,0,0.104s0.037,0.043,0.037,0.086c0,0.045,0.019,0.164,0.019,0.164l0.061,0.111
			c0,0,0.062,0.061,0.098,0.061c0.037,0,0.135,0.031,0.135,0.031s0.073,0.008,0.104-0.014c0.024-0.018,0.086-0.055,0.086-0.055
			l0.012,0.068l-0.023,0.092l-0.056,0.047l-0.049,0.025l-0.092,0.018l-0.085-0.008l-0.08-0.057l-0.061-0.02L52.9,60.684l-0.031-0.1
			l-0.019-0.131l-0.006-0.135l-0.013-0.064l-0.029-0.043l-0.02-0.08l-0.036-0.027l-0.03-0.084l-0.024-0.055l0.012-0.064
			L52.783,59.924z M50.053,57.23l0.068,0.078l0.018,0.078l-0.049,0.029l-0.037-0.029l-0.104-0.016l-0.055,0.016
			c0,0-0.031,0.029-0.068,0.029c-0.042,0-0.14-0.029-0.14-0.029l-0.08,0.064l-0.055,0.021l-0.135,0.045l-0.067,0.064l-0.098,0.025
			l-0.067,0.051L49.1,57.725l-0.042,0.057l-0.08,0.021v-0.086l0.074-0.07l0.085-0.055c0,0,0.043-0.018,0.043-0.055
			c0-0.031,0.049-0.086,0.049-0.086l0.085-0.025l0.062-0.064l0.067-0.033l0.055-0.02l0.08-0.035l0.092,0.014l0.061,0.021l0.097-0.01
			l0.049-0.055l0.098-0.014H50.053z"/>
	</g>
</g>
</svg>
