<?xml version="1.0" encoding="utf-8"?>
<!-- Generator: Adobe Illustrator 16.0.0, SVG Export Plug-In . SVG Version: 6.00 Build 0)  -->
<!DOCTYPE svg PUBLIC "-//W3C//DTD SVG 1.1//EN" "http://www.w3.org/Graphics/SVG/1.1/DTD/svg11.dtd">
<svg xmlns="http://www.w3.org/2000/svg" xmlns:xlink="http://www.w3.org/1999/xlink" version="1.1" id="Layer_1" x="0px" y="0px" width="100px" height="100px" viewBox="0 0 100 100" enable-background="new 0 0 100 100" xml:space="preserve">

<g>
	<g>
		<path fill="#F6921E" d="M67.87,88.713c-1.535,1.925-3.561,3.508-5.853,4.431c0.866-0.909,2.327-1.67,2.277-3.03    c-0.059-1.41-1.993-1.537-3.14-1.654c-3.946-0.115-7.838,1.098-11.33,2.861c-1.746,0.946-3.703,0.903-4.598,0.188    c-0.56-0.448-1.156-2.221-0.226-2.846c5.085-3.407,11.131-5.49,17.263-5.71c2.03,0.068,4.343,0.159,5.929,1.597    C69.416,85.703,68.783,87.582,67.87,88.713z"/>
		<path fill="#F6921E" d="M86.369,61.745c-0.677,2.773-1.298,5.596-2.59,8.157c0.608-2.256,1.104-4.697,0.233-6.959    c-1.168-3.364-4.474-5.409-7.752-6.34c-6.373-1.8-13.142-1.016-19.488,0.457c-3.128,0.746-6.198,1.748-9.184,2.926    c-1.415,0.549-3.171,0.56-4.39-0.443c-1.241-1.019-2.088-2.706-1.691-4.324c0.327-1.488,1.575-2.61,2.957-3.141    c4.915-1.953,10.032-3.434,15.256-4.288c5.411-0.854,11.023-1.131,16.393,0.116c3.427,0.826,6.93,2.412,8.98,5.4    C86.796,55.738,87.053,58.924,86.369,61.745z"/>
		<path fill="#F6921E" d="M80.131,27.985c-4.176-5.183-11.144-6.686-17.471-6.944c-10.056-0.261-20.004,2.255-29.312,5.926    c-1.404,0.482-3.001,0.727-4.419,0.159c-1.201-0.472-1.954-1.913-1.444-3.149c0.662-1.706,2.364-2.714,4.001-3.333    c7.937-3.073,16.356-5.183,24.904-5.346c5.706-0.044,11.833,0.688,16.562,4.168C75.799,21.878,78.036,24.922,80.131,27.985z"/>
	</g>
	<g>
		<path fill="#EB008B" d="M76.318,82.094c-1.186,1.356-2.629,2.663-4.123,3.498c1.149-2.048,2.756-4.044,2.677-6.527    c0.061-2.145-1.542-3.947-3.423-4.752c-3.394-1.491-7.249-1.249-10.82-0.636c-3.904,0.741-7.683,2.095-11.207,3.936    c-2.139,1.143-4.576-0.717-5.463-2.644c-0.688-1.357-0.047-3.082,1.349-3.672c6.278-3.279,13.186-5.535,20.281-5.986    c3.892-0.152,8.068,0.113,11.413,2.303c2.117,1.331,3.392,3.853,3.158,6.348C79.902,77.031,78.27,79.787,76.318,82.094z"/>
		<path fill="#EB008B" d="M16.354,57.792c-1.055,0.979-2.753,1.503-4.055,0.703c-1.804-1.153-2.357-3.646-1.611-5.588    c0.549-1.745,2.052-2.898,3.383-4.041c6.013-5.096,12.847-9.147,20.031-12.355c7.441-3.274,15.309-5.667,23.384-6.704    c6.595-0.774,13.524-0.825,19.794,1.626c3.579,1.405,6.977,4.074,8.09,7.897c0.895,3.346,1.674,6.765,1.832,10.243    c-0.282-3.412-2.112-6.624-5.008-8.479c-4.964-3.28-11.163-3.884-16.975-3.731c-8.584,0.324-16.998,2.539-24.945,5.703    C31.566,46.601,23.302,51.423,16.354,57.792z"/>
		<path fill="#EB008B" d="M21.229,18.917c-1.124,0.473-2.509,1.211-3.688,0.495c-0.727-1.608,1.146-2.881,2.292-3.699    c5.325-2.982,11.145-5.056,17.088-6.423c6.303-1.332,13.054-1.954,19.255,0.174c2.987,1.04,5.936,2.259,8.635,3.91    c-5.36-2.783-11.588-3.114-17.502-2.546C38.193,11.785,29.37,14.749,21.229,18.917z"/>
	</g>
</g>
</svg>
