<?xml version="1.0" encoding="utf-8"?>
<!-- Generator: Adobe Illustrator 16.0.0, SVG Export Plug-In . SVG Version: 6.00 Build 0)  -->
<!DOCTYPE svg PUBLIC "-//W3C//DTD SVG 1.1//EN" "http://www.w3.org/Graphics/SVG/1.1/DTD/svg11.dtd">
<svg version="1.1" id="Layer_1" xmlns="http://www.w3.org/2000/svg" xmlns:xlink="http://www.w3.org/1999/xlink" x="0px" y="0px"
	 width="100px" height="100px" viewBox="0 0 100 100" enable-background="new 0 0 100 100" xml:space="preserve">
<g>
	<path fill="#29B473" d="M90.137,66.869c0,0-10.387-4.775-17.729-8.216c-7.343-3.441-11.56-5.741-6.486-15.621
		c5.073-9.879,5.073-9.879,5.073-9.879S57.78,54.855,49.685,46.171c-8.096-8.68-18.475-16.78-18.475-16.78
		s12.309,6.134,18.924,8.301c6.615,2.171,13.138,2.888,24.327-12.946c11.19-15.839,13.33-18.679,13.33-18.679
		s-9.968,17.623-14.311,28.402c-4.342,10.774-2.336,16.485,6.179,23.413C88.176,64.813,90.137,66.869,90.137,66.869z"/>
	<path fill="#29B473" d="M61.294,27.452c0,3.063-2.479,5.541-5.537,5.541c-3.059,0-5.538-2.478-5.538-5.541
		c0-3.054,2.479-5.537,5.538-5.537C58.814,21.915,61.294,24.398,61.294,27.452z"/>
	<path fill="#1B75BB" d="M58.368,72.411c0,3.059-2.479,5.537-5.541,5.537c-3.058,0-5.537-2.479-5.537-5.537s2.479-5.542,5.537-5.542
		C55.89,66.869,58.368,69.353,58.368,72.411z"/>
	<path fill="#1B75BB" d="M59.938,55.097c-8.301-8.489-20.997,13.516-20.997,13.516s0,0,4.837-9.995
		c4.841-9.994,0.566-12.197-6.852-15.469c-7.418-3.268-17.922-7.793-17.922-7.793s2.015,2.01,10.691,8.738
		c0.824,0.642,1.587,1.267,2.295,1.895l2.965,3.027c1.267,1.524,2.176,3.081,2.747,4.739l0.668,3.196
		c0.125,1.472,0.018,3.044-0.304,4.77l-0.749,2.987c-0.254,0.856-0.553,1.73-0.9,2.647c-0.294,0.785-0.615,1.606-0.963,2.458
		l-1.079,2.571c-0.785,1.815-1.641,3.701-2.523,5.587l-0.964,2.04c-1.016,2.137-2.042,4.231-3.009,6.167L27.163,87.6
		c-2.475,4.917-4.386,8.492-4.386,8.492s2.077-2.897,12.893-18.991C46.484,61.008,53.02,61.573,59.684,63.583
		c6.665,2.016,19.112,7.861,19.112,7.861S68.234,63.583,59.938,55.097z"/>
	<path fill="#29B473" d="M84.216,29.217c-1.23-2.108-2.647-4.119-4.244-5.964c-0.053,0.102-0.098,0.2-0.15,0.299
		c1.524,1.832,2.897,3.785,4.038,5.875c1.159,2.171,2.141,4.45,2.813,6.812c1.397,4.717,1.739,9.688,1.183,14.492
		c-0.264,2.403-0.784,4.775-1.472,7.071c-0.329,1.074-0.709,2.13-1.133,3.169c0.789,0.67,1.477,1.25,2.074,1.771
		c0.085-0.209,0.173-0.414,0.254-0.62c0.432-1.213,0.803-2.438,1.119-3.682c0.638-2.479,0.976-5.024,1.083-7.564
		c0.196-5.092-0.67-10.166-2.371-14.878C86.535,33.648,85.501,31.361,84.216,29.217z"/>
	<path fill="#1B75BB" d="M29.615,79.94c0.071-0.146,0.142-0.294,0.213-0.433l0.299-0.641C27.43,76.949,25,74.662,22.91,72.121
		c-6.152-7.547-9.085-17.391-8.265-26.913c0.793-9.55,5.505-18.582,12.724-24.778c7.159-6.286,16.766-9.581,26.431-9.282
		c4.828,0.169,9.688,1.257,14.142,3.339c2.233,1.017,4.337,2.323,6.317,3.794c0.726,0.552,1.417,1.136,2.095,1.748
		c0.08-0.112,0.151-0.206,0.227-0.321c-0.663-0.61-1.341-1.208-2.045-1.779c-1.927-1.591-4.03-2.965-6.224-4.182
		c-4.405-2.394-9.295-4.012-14.363-4.587c-5.057-0.589-10.29-0.156-15.212,1.391c-4.935,1.507-9.522,4.105-13.472,7.436
		c-3.923,3.361-7.204,7.507-9.483,12.153c-2.287,4.637-3.633,9.718-3.972,14.854c-0.339,5.136,0.348,10.334,2.042,15.166
		c1.685,4.846,4.404,9.286,7.801,13.04C23.997,75.809,26.689,78.063,29.615,79.94z"/>
	<path fill="#29B473" d="M83.352,65.041c-1.043,1.904-2.212,3.74-3.539,5.452c-0.045,0.055-0.095,0.107-0.135,0.161
		c0.339,0.384,0.401,0.944,0.135,1.396c-0.313,0.521-0.967,0.718-1.517,0.463c-0.009-0.005-0.053-0.026-0.128-0.062
		c-1.021,1.163-2.1,2.264-3.242,3.277c-3.603,3.218-7.757,5.786-12.331,7.443c-2.282,0.821-4.653,1.427-7.065,1.788
		c-2.421,0.354-4.873,0.45-7.316,0.299c-4.867-0.321-9.669-1.649-13.989-3.896c-0.196,0.289-0.388,0.578-0.58,0.854
		c4.53,2.222,9.469,3.604,14.489,4.018c2.505,0.219,5.033,0.209,7.542-0.04c2.515-0.227,5.012-0.705,7.445-1.427
		c2.43-0.723,4.801-1.685,7.062-2.87c2.247-1.188,4.413-2.631,6.356-4.24c3.821-3.17,6.991-7.084,9.238-11.497
		C85.037,65.822,84.216,65.443,83.352,65.041z"/>
</g>
</svg>
