<?xml version="1.0" encoding="utf-8"?>
<!-- Generator: Adobe Illustrator 16.0.0, SVG Export Plug-In . SVG Version: 6.00 Build 0)  -->
<!DOCTYPE svg PUBLIC "-//W3C//DTD SVG 1.1//EN" "http://www.w3.org/Graphics/SVG/1.1/DTD/svg11.dtd">
<svg xmlns="http://www.w3.org/2000/svg" xmlns:xlink="http://www.w3.org/1999/xlink" version="1.1" id="Layer_1" x="0px" y="0px" width="100px" height="100px" viewBox="0 0 100 100" enable-background="new 0 0 100 100" xml:space="preserve">

<g>
	<radialGradient id="SVGID_13_" cx="57.3887" cy="40.0166" r="46.7099" gradientUnits="userSpaceOnUse">
		<stop offset="0.1544" style="stop-color:#FFEE00"/>
		<stop offset="0.356" style="stop-color:#FBB216"/>
		<stop offset="0.4909" style="stop-color:#F6921E"/>
		<stop offset="0.6545" style="stop-color:#C1481E"/>
		<stop offset="0.7758" style="stop-color:#802B02"/>
		<stop offset="0.8848" style="stop-color:#470500"/>
		<stop offset="0.9515" style="stop-color:#300000"/>
	</radialGradient>
	<path fill="url(#SVGID_13_)" d="M82.641,50.896c-0.131,0-0.258,0.013-0.39,0.019L66.414,30.697   c0.641-1.428,1.001-3.011,1.001-4.679c0-6.32-5.127-11.447-11.444-11.447c-6.322,0-11.446,5.127-11.446,11.447   c0,1.689,0.368,3.289,1.024,4.733L26.29,55.609c-1.123-0.296-2.303-0.457-3.521-0.457c-7.574,0-13.716,6.141-13.716,13.713   c0,7.577,6.143,13.718,13.716,13.718s13.717-6.141,13.717-13.718c0-2.438-0.644-4.73-1.761-6.714L53.987,37.29   c0.644,0.112,1.308,0.175,1.983,0.175c0.695,0,1.377-0.068,2.039-0.186l15.834,20.212c-0.24,0.817-0.376,1.681-0.376,2.577   c0,5.069,4.11,9.18,9.173,9.18c5.069,0,9.177-4.11,9.177-9.18C91.817,55.002,87.71,50.896,82.641,50.896z"/>
	<g>
		<radialGradient id="SVGID_14_" cx="57.9951" cy="50.7217" r="62.6795" gradientUnits="userSpaceOnUse">
			<stop offset="0.0364" style="stop-color:#FFFFFF"/>
			<stop offset="0.2242" style="stop-color:#C4C4C6"/>
			<stop offset="0.5212" style="stop-color:#575758"/>
			<stop offset="0.703" style="stop-color:#B6B9BD"/>
			<stop offset="0.8217" style="stop-color:#B3B7BC"/>
			<stop offset="0.9012" style="stop-color:#B3B7BC"/>
		</radialGradient>
		<path fill="url(#SVGID_14_)" d="M71.77,60.068c0-0.727,0.073-1.461,0.227-2.184l-14.72-18.788    c-0.853,0.084-1.689,0.087-2.545,0.006L36.73,62.337c0.953,2.034,1.453,4.273,1.453,6.528c0,6.994-4.68,12.907-11.073,14.788    c6.159,3.641,13.337,5.739,21.01,5.739c14.365,0,27.01-7.331,34.417-18.45C76.591,70.886,71.77,66.032,71.77,60.068z"/>
	</g>
</g>
</svg>
