<?xml version="1.0" encoding="utf-8"?>
<!-- Generator: Adobe Illustrator 16.0.0, SVG Export Plug-In . SVG Version: 6.00 Build 0)  -->
<!DOCTYPE svg PUBLIC "-//W3C//DTD SVG 1.1//EN" "http://www.w3.org/Graphics/SVG/1.1/DTD/svg11.dtd">
<svg version="1.1" id="Layer_1" xmlns="http://www.w3.org/2000/svg" xmlns:xlink="http://www.w3.org/1999/xlink" x="0px" y="0px"
	 width="100px" height="100px" viewBox="0 0 100 100" enable-background="new 0 0 100 100" xml:space="preserve">
<g>
	<g>
		<path fill="#5F6062" d="M58.684,35.746c0.041,0,0.08,0.011,0.124,0.011c-0.822-2.077-2.068-3.653-3.808-4.445
			c-6.304-2.869-16.16,5.107-22.021,17.816c-5.854,12.706-5.497,25.33,0.807,28.201c2.564,1.169,5.719,0.516,8.953-1.5
			c-2.246,0.867-4.397,0.964-6.25,0.119c-5.999-2.728-6.589-14.205-1.321-25.632c5.271-11.427,14.402-18.479,20.395-15.748
			c0.768,0.349,1.41,0.881,1.991,1.501C57.899,35.87,58.287,35.746,58.684,35.746z"/>
		<path fill="#186EA4" d="M59.201,38.54c-0.066-1.036-0.199-1.994-0.374-2.894h-36.14L9.319,55.764l12.837,20.118h20.458
			c4.285-3.457,8.838-9.222,12.225-16.82C57.978,52.011,59.566,44.533,59.201,38.54z M14.391,56.988
			c-0.795,0-1.438-0.646-1.438-1.438c0-0.795,0.643-1.44,1.438-1.44c0.797,0,1.44,0.646,1.44,1.44
			C15.831,56.343,15.188,56.988,14.391,56.988z"/>
		<defs>
			<filter id="Adobe_OpacityMaskFilter" filterUnits="userSpaceOnUse" x="9.319" y="35.646" width="49.934" height="40.236">
				<feFlood  style="flood-color:white;flood-opacity:1" result="back"/>
				<feBlend  in="SourceGraphic" in2="back" mode="normal"/>
			</filter>
		</defs>
		<mask maskUnits="userSpaceOnUse" x="9.319" y="35.646" width="49.934" height="40.236" id="SVGID_1_">
			<g filter="url(#Adobe_OpacityMaskFilter)">
				<defs>
					<filter id="Adobe_OpacityMaskFilter_1_" filterUnits="userSpaceOnUse" x="9.319" y="35.646" width="49.934" height="40.236">
						<feFlood  style="flood-color:white;flood-opacity:1" result="back"/>
						<feBlend  in="SourceGraphic" in2="back" mode="normal"/>
					</filter>
				</defs>
				<mask maskUnits="userSpaceOnUse" x="9.319" y="35.646" width="49.934" height="40.236" id="SVGID_1_">
					<g filter="url(#Adobe_OpacityMaskFilter_1_)">
					</g>
				</mask>
				<linearGradient id="SVGID_2_" gradientUnits="userSpaceOnUse" x1="54.498" y1="61.8857" x2="38.7472" y2="55.0022">
					<stop  offset="0" style="stop-color:#FFFFFF"/>
					<stop  offset="0.0524" style="stop-color:#E8E8E8"/>
					<stop  offset="0.2031" style="stop-color:#ABABAB"/>
					<stop  offset="0.3529" style="stop-color:#777777"/>
					<stop  offset="0.4983" style="stop-color:#4C4C4C"/>
					<stop  offset="0.6383" style="stop-color:#2B2B2B"/>
					<stop  offset="0.7716" style="stop-color:#131313"/>
					<stop  offset="0.8952" style="stop-color:#050505"/>
					<stop  offset="1" style="stop-color:#000000"/>
				</linearGradient>
				<path mask="url(#SVGID_1_)" fill="url(#SVGID_2_)" d="M59.201,38.54c-0.066-1.036-0.199-1.994-0.374-2.894h-36.14L9.319,55.764
					l12.837,20.118h20.458c4.285-3.457,8.838-9.222,12.225-16.82C57.978,52.011,59.566,44.533,59.201,38.54z M14.391,56.988
					c-0.795,0-1.438-0.646-1.438-1.438c0-0.795,0.643-1.44,1.438-1.44c0.797,0,1.44,0.646,1.44,1.44
					C15.831,56.343,15.188,56.988,14.391,56.988z"/>
			</g>
		</mask>
		<linearGradient id="SVGID_3_" gradientUnits="userSpaceOnUse" x1="54.498" y1="61.8857" x2="38.7472" y2="55.0022">
			<stop  offset="0" style="stop-color:#231F20"/>
			<stop  offset="1" style="stop-color:#231F20"/>
		</linearGradient>
		<path fill="url(#SVGID_3_)" d="M59.201,38.54c-0.066-1.036-0.199-1.994-0.374-2.894h-36.14L9.319,55.764l12.837,20.118h20.458
			c4.285-3.457,8.838-9.222,12.225-16.82C57.978,52.011,59.566,44.533,59.201,38.54z M14.391,56.988
			c-0.795,0-1.438-0.646-1.438-1.438c0-0.795,0.643-1.44,1.438-1.44c0.797,0,1.44,0.646,1.44,1.44
			C15.831,56.343,15.188,56.988,14.391,56.988z"/>
		<path fill="#FFFFFF" d="M18.838,46.458l0.662,0.44l2.171-3.265l-0.659-0.44L18.838,46.458z M23.38,71.154l-0.67,0.427l0.969,1.522
			h1.806V72.31h-1.368L23.38,71.154z M28.562,73.104h3.077V72.31h-3.077V73.104z M29.144,39.222h3.163v-0.795h-3.163V39.222z
			 M23.181,39.925l0.662,0.44l0.762-1.144h1.377v-0.795h-1.803L23.181,39.925z M16.93,58.918c-0.391,0.294-0.823,0.516-1.285,0.662
			l-0.496,0.152l1.132,1.778l0.673-0.43l-0.593-0.922c0.371-0.161,0.723-0.363,1.047-0.609L16.93,58.918z M19.126,57.199
			c0.186-0.53,0.28-1.083,0.28-1.648c0-0.427-0.053-0.851-0.164-1.257l-0.764,0.198c0.088,0.341,0.133,0.698,0.133,1.059
			c0,0.473-0.081,0.941-0.232,1.384L19.126,57.199z M18.426,64.867l2.14,3.357l0.67-0.43l-2.14-3.357L18.426,64.867z M17.329,50.167
			l-0.659-0.443l-1.149,1.728l0.452,0.183c0.451,0.185,0.863,0.444,1.227,0.768l0.529-0.59c-0.311-0.279-0.654-0.519-1.022-0.709
			L17.329,50.167z M48.12,39.222h3.16v-0.795h-3.16V39.222z M34.715,73.104h3.077V72.31h-3.077V73.104z M41.795,39.222h3.16v-0.795
			h-3.16V39.222z M35.469,39.222h3.163v-0.795h-3.163V39.222z"/>
		<rect x="67.789" y="22.926" fill="#F58532" width="7.361" height="7.361"/>
		<rect x="75.652" y="15.733" fill="#F58532" width="7.358" height="7.361"/>
		<rect x="76.319" y="30.786" fill="#F58532" width="3.349" height="3.351"/>
		<path fill="#F38433" d="M68.119,30.442v2.481h-3.351v-3.351h2.985c-1.191-2.631-2.934-4.581-5.224-5.6
			c-4.049-1.803-9.098-0.388-14.158,3.359c3.639-1.812,7.181-2.251,10.18-0.915C67.005,30.182,68,46.38,60.78,62.588
			c-7.224,16.21-19.93,26.297-28.382,22.53c-2.612-1.163-4.506-3.521-5.672-6.691c0.867,5.283,3.099,9.217,6.714,10.823
			c8.887,3.96,22.596-7.443,30.63-25.469C69.809,50.902,71.09,38.133,68.119,30.442z"/>
		<rect x="83.344" y="23.762" fill="#F58532" width="3.348" height="3.351"/>
		<rect x="71.132" y="10.878" fill="#F58532" width="3.352" height="3.352"/>
	</g>
</g>
</svg>
